<?xml version="1.0" encoding="UTF-8"?>
<svg width="24px" height="24px" viewBox="0 0 24 24" version="1.1" xmlns="http://www.w3.org/2000/svg"
>
    <title>Shape</title>
    <g id="Page-1" stroke="none" stroke-width="1" fill="none" fill-rule="evenodd">
        <g id="Проекты-(процесс)" transform="translate(-28, -968)" fill="#FFFFFF" fill-rule="nonzero">
            <path d="M40,970 C45.514,970 50,974.486 50,980 C50,985.514 45.514,990 40,990 C34.486,990 30,985.514 30,980 C30,974.486 34.486,970 40,970 Z M40,968 C33.373,968 28,973.373 28,980 C28,986.627 33.373,992 40,992 C46.627,992 52,986.627 52,980 C52,973.373 46.627,968 40,968 Z M41.25,985 C41.25,985.69 40.691,986.25 40,986.25 C39.311,986.25 38.75,985.69 38.75,985 C38.75,984.31 39.311,983.75 40,983.75 C40.691,983.75 41.25,984.31 41.25,985 Z M42.643,975.002 C42.035,974.386 41.128,974.047 40.092,974.047 C37.912,974.047 36.502,975.597 36.502,977.997 L38.513,977.997 C38.513,976.511 39.342,975.984 40.051,975.984 C40.685,975.984 41.358,976.405 41.415,977.21 C41.477,978.057 41.025,978.487 40.453,979.031 C39.041,980.374 39.015,981.024 39.021,982.499 L41.026,982.499 C41.013,981.835 41.056,981.296 41.961,980.321 C42.638,979.591 43.48,978.683 43.497,977.299 C43.508,976.375 43.213,975.58 42.643,975.002 L42.643,975.002 Z"
                  id="Shape"></path>
        </g>
    </g>
</svg>
