<?xml version="1.0" encoding="UTF-8"?>
<svg width="22px" height="22px" viewBox="0 0 22 22" version="1.1" xmlns="http://www.w3.org/2000/svg"
>
    <title>Icon Copy</title>
    <g id="Page-1" stroke="none" stroke-width="1" fill="none" fill-rule="evenodd">
        <g id="Проекты-(процесс)" transform="translate(-1250, -29)" fill="#B8B8B8">
            <path d="M1271.35294,43.7205882 L1270.62759,43.7205882 C1270.04329,43.7205882 1269.52565,43.3317059 1269.37812,42.7661765 C1269.07594,41.606 1268.76471,39.9042353 1268.76471,37.8161765 C1268.76471,34.8319412 1267.68994,31.3585294 1263.01429,30.5024706 C1262.70176,30.4448824 1262.46753,30.1828235 1262.46753,29.8651176 L1262.46753,29.6470588 C1262.46753,29.2898824 1262.17829,29 1261.82112,29 L1260.52635,29 C1260.16918,29 1259.87994,29.2898824 1259.87994,29.6470588 L1259.87994,29.8696471 C1259.87994,30.1821765 1259.65024,30.441 1259.34224,30.4966471 C1254.63876,31.3423529 1253.55882,34.8248235 1253.55882,37.8161765 C1253.55882,39.89 1253.245,41.5982353 1252.94153,42.7655294 C1252.794,43.3310588 1252.27635,43.7205882 1251.69206,43.7205882 L1250.64706,43.7205882 C1250.28988,43.7205882 1250,44.0104706 1250,44.3676471 L1250,45.6617647 C1250,46.0189412 1250.28988,46.3088235 1250.64706,46.3088235 L1255.64882,46.3088235 C1255.95553,46.3088235 1256.22471,46.5236471 1256.27971,46.8251765 C1256.71518,49.2018235 1258.66541,51 1261,51 C1263.33459,51 1265.28482,49.2018235 1265.72029,46.8251765 C1265.77529,46.5236471 1266.04447,46.3088235 1266.35118,46.3088235 L1271.35294,46.3088235 C1271.71012,46.3088235 1272,46.0189412 1272,45.6617647 L1272,44.3676471 C1272,44.0104706 1271.71012,43.7205882 1271.35294,43.7205882 L1271.35294,43.7205882 Z M1256.08362,37.6673241 C1256.08362,34.3063774 1257.56422,32.7922419 1260.99991,32.6666667 C1264.4356,32.7922419 1265.9162,34.3063774 1265.9162,37.6673241 C1265.9162,39.7626561 1266.18326,41.5312295 1266.48268,42.8579882 C1266.57656,43.2721893 1266.27715,43.6666667 1265.86608,43.6666667 L1256.13374,43.6666667 C1255.72267,43.6666667 1255.42389,43.2721893 1255.51714,42.8579882 C1255.81656,41.5312295 1256.08362,39.7626561 1256.08362,37.6673241 L1256.08362,37.6673241 Z M1259.16667,46.4166667 L1263.75,46.4166667 C1263.54408,47.4591282 1262.59669,48.25 1261.45833,48.25 C1260.31998,48.25 1259.37259,47.4591282 1259.16667,46.4166667 Z"
                  id="Icon-Copy"></path>
        </g>
    </g>
</svg>
