<svg width="14" height="15" viewBox="0 0 14 15" fill="none" xmlns="http://www.w3.org/2000/svg">
    <g opacity="0.5">
        <path fill-rule="evenodd" clip-rule="evenodd"
              d="M0.0254322 13.5583L1.07109 8.64522C1.07109 8.52226 1.13139 8.43124 1.22058 8.34044L8.72695 0.680677C9.30169 0.00937209 10.8616 -0.436206 11.9558 0.680677L13.332 2.08492C14.2226 2.9935 14.2226 4.47093 13.332 5.37971L5.82563 13.0393C5.76513 13.101 5.67614 13.1625 5.55533 13.1918L0.7122 14.3203C0.421998 14.3645 -0.124063 14.1768 0.0254322 13.5583ZM12.496 4.52669C12.9441 4.06946 12.9441 3.3659 12.496 2.90867L11.1199 1.50442C10.6834 1.05885 9.97089 1.05885 9.53422 1.50442L2.68563 8.49267H3.46402C3.79159 8.49267 4.06159 8.76849 4.06159 9.10245V10.108H5.04705C5.37462 10.108 5.64452 10.3835 5.64452 10.7178V11.4828L12.496 4.52669ZM4.4524 12.1862V11.3305H3.46695C2.94978 11.3803 2.86937 10.8467 2.86937 10.7208V9.71222H2.03079L1.34109 12.9163L4.4524 12.1862Z"
              fill="#3D4044"/>
    </g>
</svg>
