<?xml version="1.0" encoding="UTF-8"?>
<svg width="20px" height="20px" viewBox="0 0 20 20" version="1.1" xmlns="http://www.w3.org/2000/svg"
>
    <title>Icon Copy</title>
    <g id="Page-1" stroke="none" stroke-width="1" fill="none" fill-rule="evenodd">
        <g id="Проекты-(процесс)" transform="translate(-30, -200)" fill="#FFFFFF">
            <path d="M34.1176471,205 L30.5882353,205 C30.2635294,205 30,204.72 30,204.375 L30,200.625 C30,200.28 30.2635294,200 30.5882353,200 L34.1176471,200 C34.4423529,200 34.7058824,200.28 34.7058824,200.625 L34.7058824,204.375 C34.7058824,204.72 34.4423529,205 34.1176471,205 M41.7647059,205 L38.2352941,205 C37.9105882,205 37.6470588,204.72 37.6470588,204.375 L37.6470588,200.625 C37.6470588,200.28 37.9105882,200 38.2352941,200 L41.7647059,200 C42.0894118,200 42.3529412,200.28 42.3529412,200.625 L42.3529412,204.375 C42.3529412,204.72 42.0894118,205 41.7647059,205 M49.4117647,205 L45.8823529,205 C45.5576471,205 45.2941176,204.72 45.2941176,204.375 L45.2941176,200.625 C45.2941176,200.28 45.5576471,200 45.8823529,200 L49.4117647,200 C49.7364706,200 50,200.28 50,200.625 L50,204.375 C50,204.72 49.7364706,205 49.4117647,205 M34.1176471,212.5 L30.5882353,212.5 C30.2635294,212.5 30,212.22 30,211.875 L30,208.125 C30,207.78 30.2635294,207.5 30.5882353,207.5 L34.1176471,207.5 C34.4423529,207.5 34.7058824,207.78 34.7058824,208.125 L34.7058824,211.875 C34.7058824,212.22 34.4423529,212.5 34.1176471,212.5 M41.7647059,212.5 L38.2352941,212.5 C37.9105882,212.5 37.6470588,212.22 37.6470588,211.875 L37.6470588,208.125 C37.6470588,207.78 37.9105882,207.5 38.2352941,207.5 L41.7647059,207.5 C42.0894118,207.5 42.3529412,207.78 42.3529412,208.125 L42.3529412,211.875 C42.3529412,212.22 42.0894118,212.5 41.7647059,212.5 M49.4117647,212.5 L45.8823529,212.5 C45.5576471,212.5 45.2941176,212.22 45.2941176,211.875 L45.2941176,208.125 C45.2941176,207.78 45.5576471,207.5 45.8823529,207.5 L49.4117647,207.5 C49.7364706,207.5 50,207.78 50,208.125 L50,211.875 C50,212.22 49.7364706,212.5 49.4117647,212.5 M34.1176471,220 L30.5882353,220 C30.2635294,220 30,219.72 30,219.375 L30,215.625 C30,215.28 30.2635294,215 30.5882353,215 L34.1176471,215 C34.4423529,215 34.7058824,215.28 34.7058824,215.625 L34.7058824,219.375 C34.7058824,219.72 34.4423529,220 34.1176471,220 M41.7647059,220 L38.2352941,220 C37.9105882,220 37.6470588,219.72 37.6470588,219.375 L37.6470588,215.625 C37.6470588,215.28 37.9105882,215 38.2352941,215 L41.7647059,215 C42.0894118,215 42.3529412,215.28 42.3529412,215.625 L42.3529412,219.375 C42.3529412,219.72 42.0894118,220 41.7647059,220 M49.4117647,220 L45.8823529,220 C45.5576471,220 45.2941176,219.72 45.2941176,219.375 L45.2941176,215.625 C45.2941176,215.28 45.5576471,215 45.8823529,215 L49.4117647,215 C49.7364706,215 50,215.28 50,215.625 L50,219.375 C50,219.72 49.7364706,220 49.4117647,220"
                  id="Icon-Copy"></path>
        </g>
    </g>
</svg>
