<svg width="20" height="20" viewBox="0 0 20 20" fill="none" xmlns="http://www.w3.org/2000/svg">
    <path fill-rule="evenodd" clip-rule="evenodd"
          d="M0 10C0 4.46939 4.46939 0 10 0C15.5306 0 20 4.46939 20 10C20 15.5306 15.5306 20 10 20C4.46939 20 0 15.5306 0 10ZM1.66122 10C1.66122 14.5959 5.40408 18.3388 10 18.3388C14.5959 18.3388 18.3388 14.5959 18.3388 10C18.3388 5.40408 14.5959 1.66122 10 1.66122C5.40408 1.66122 1.66122 5.40408 1.66122 10Z"
          fill="#5C81C2"/>
    <path fill-rule="evenodd" clip-rule="evenodd"
          d="M11.7601 11.299L13.8831 13.4089C14.0183 13.5458 14.0183 13.7478 13.8831 13.8815C13.7479 14.0167 13.5442 14.0167 13.409 13.8815L11.2941 11.7633L9.29817 13.7641C9.2053 13.8912 8.95275 13.8977 8.82403 13.7641C8.1446 13.0554 7.9279 12.0517 8.2831 11.154L6.10143 8.9674C5.96619 8.83217 5.96619 8.6285 6.10143 8.49327L8.50306 6.10304C8.63829 5.96781 8.84196 5.96781 8.97719 6.10304L11.1426 8.27494C11.4293 8.156 11.734 8.10549 12.0387 8.10549C12.6823 8.10549 13.29 8.35966 13.7642 8.8175C13.8994 8.95274 13.8994 9.1564 13.7642 9.29164L11.7601 11.299ZM8.97719 11.2403C8.6725 11.8334 8.72301 12.5112 9.07821 13.0538L13.0196 9.10264C12.7328 8.89897 12.3939 8.79795 12.0224 8.79795C11.7356 8.79795 11.4652 8.86638 11.211 9.00162C11.0758 9.06842 10.9226 9.0342 10.8216 8.93319L8.74094 6.81506L6.81181 8.74907L8.90876 10.8509C9.01141 10.9519 9.0277 11.1051 8.97719 11.2403Z"
          fill="#5C81C2"/>
    <path d="M13.8831 13.4089L14.1499 13.1454L14.1474 13.143L13.8831 13.4089ZM11.7601 11.299L11.4947 11.034L11.2291 11.3L11.4957 11.5649L11.7601 11.299ZM13.8831 13.8815L13.6195 13.6147L13.6179 13.6163L13.8831 13.8815ZM13.409 13.8815L13.1436 14.1464L13.1438 14.1466L13.409 13.8815ZM11.2941 11.7633L11.5595 11.4984L11.294 11.2325L11.0286 11.4985L11.2941 11.7633ZM9.29817 13.7641L9.03268 13.4993L9.01237 13.5197L8.9954 13.5429L9.29817 13.7641ZM8.82403 13.7641L8.55332 14.0236L8.55397 14.0243L8.82403 13.7641ZM8.2831 11.154L8.6318 11.2919L8.72228 11.0632L8.54856 10.8891L8.2831 11.154ZM6.10143 8.9674L6.36689 8.70253L6.36659 8.70224L6.10143 8.9674ZM6.10143 8.49327L5.83689 8.22747L5.83626 8.2281L6.10143 8.49327ZM8.50306 6.10304L8.76759 6.36884L8.76822 6.36821L8.50306 6.10304ZM8.97719 6.10304L9.24275 5.83828L9.24235 5.83788L8.97719 6.10304ZM11.1426 8.27494L10.877 8.5397L11.0543 8.71753L11.2862 8.62132L11.1426 8.27494ZM13.7642 8.8175L14.0294 8.5523L14.0246 8.54774L13.7642 8.8175ZM13.7642 9.29164L13.499 9.02647L13.4988 9.02669L13.7642 9.29164ZM9.07821 13.0538L8.76446 13.2592L9.01747 13.6456L9.3437 13.3186L9.07821 13.0538ZM8.97719 11.2403L9.31075 11.4117L9.32079 11.3921L9.32849 11.3715L8.97719 11.2403ZM13.0196 9.10264L13.285 9.36747L13.5981 9.05361L13.2367 8.7969L13.0196 9.10264ZM11.211 9.00162L11.3772 9.33799L11.3871 9.33268L11.211 9.00162ZM10.8216 8.93319L10.5541 9.19598L10.5564 9.19835L10.8216 8.93319ZM8.74094 6.81506L9.00846 6.55227L8.74298 6.28201L8.47544 6.55023L8.74094 6.81506ZM6.81181 8.74907L6.54631 8.48424L6.28213 8.7491L6.54634 9.01393L6.81181 8.74907ZM8.90876 10.8509L8.64327 11.1158L8.64572 11.1182L8.90876 10.8509ZM14.1474 13.143L12.0244 11.033L11.4957 11.5649L13.6187 13.6749L14.1474 13.143ZM14.1466 14.1482C14.4322 13.8661 14.4276 13.4265 14.1498 13.1454L13.6163 13.6725C13.6175 13.6737 13.6156 13.6721 13.6134 13.6669C13.6112 13.6617 13.6095 13.6547 13.6095 13.6464C13.6095 13.6382 13.6112 13.6304 13.6139 13.6241C13.6152 13.6211 13.6166 13.6187 13.6177 13.617C13.6189 13.6154 13.6196 13.6146 13.6195 13.6147L14.1466 14.1482ZM13.1438 14.1466C13.4255 14.4283 13.8666 14.4283 14.1483 14.1466L13.6179 13.6163C13.6177 13.6166 13.62 13.6142 13.6257 13.6118C13.6312 13.6095 13.6383 13.6079 13.646 13.6079C13.6538 13.6079 13.6608 13.6095 13.6664 13.6118C13.672 13.6142 13.6744 13.6166 13.6741 13.6163L13.1438 14.1466ZM11.0287 12.0283L13.1436 14.1464L13.6743 13.6165L11.5595 11.4984L11.0287 12.0283ZM9.56366 14.029L11.5596 12.0282L11.0286 11.4985L9.03268 13.4993L9.56366 14.029ZM8.55397 14.0243C8.70394 14.18 8.9063 14.2384 9.0779 14.2369C9.24277 14.2354 9.46197 14.1756 9.60094 13.9854L8.9954 13.5429C9.01942 13.51 9.04545 13.496 9.05687 13.4912C9.06825 13.4864 9.07318 13.4869 9.07118 13.4869C9.06958 13.4869 9.06896 13.4865 9.07089 13.4872C9.07308 13.488 9.08261 13.492 9.09409 13.504L8.55397 14.0243ZM7.9344 11.016C7.52247 12.0572 7.77778 13.2146 8.55333 14.0236L9.09474 13.5046C8.51142 12.8961 8.33333 12.0463 8.6318 11.2919L7.9344 11.016ZM5.83596 9.23227L8.01763 11.4188L8.54856 10.8891L6.36689 8.70253L5.83596 9.23227ZM5.83626 8.2281C5.55458 8.50978 5.55458 8.95089 5.83626 9.23257L6.36659 8.70224C6.36631 8.70196 6.36869 8.70434 6.37107 8.71C6.3734 8.71555 6.375 8.72257 6.375 8.73033C6.375 8.7381 6.3734 8.74512 6.37107 8.75067C6.36869 8.75632 6.36631 8.75871 6.36659 8.75843L5.83626 8.2281ZM8.23852 5.83725L5.83689 8.22747L6.36596 8.75906L8.76759 6.36884L8.23852 5.83725ZM9.24235 5.83788C8.96067 5.5562 8.51957 5.5562 8.23789 5.83788L8.76822 6.36821C8.7685 6.36793 8.76611 6.37031 8.76046 6.37269C8.7549 6.37502 8.74789 6.37662 8.74012 6.37662C8.73235 6.37662 8.72534 6.37502 8.71978 6.37269C8.71413 6.37031 8.71174 6.36793 8.71202 6.36821L9.24235 5.83788ZM11.4081 8.01017L9.24275 5.83828L8.71163 6.36781L10.877 8.5397L11.4081 8.01017ZM12.0387 7.73049C11.6929 7.73049 11.3382 7.78782 10.9989 7.92855L11.2862 8.62132C11.5205 8.52417 11.7752 8.48049 12.0387 8.48049V7.73049ZM14.0246 8.54774C13.484 8.02567 12.7841 7.73049 12.0387 7.73049V8.48049C12.5805 8.48049 13.0961 8.69366 13.5037 9.08726L14.0246 8.54774ZM14.0293 9.5568C14.311 9.27512 14.311 8.83402 14.0293 8.55234L13.499 9.08267C13.4993 9.08295 13.4969 9.08056 13.4945 9.07491C13.4922 9.06935 13.4906 9.06234 13.4906 9.05457C13.4906 9.0468 13.4922 9.03979 13.4945 9.03423C13.4969 9.02858 13.4993 9.02619 13.499 9.02647L14.0293 9.5568ZM12.0255 11.5639L14.0295 9.55659L13.4988 9.02669L11.4947 11.034L12.0255 11.5639ZM9.39196 12.8484C9.10804 12.4147 9.06987 11.8805 9.31075 11.4117L8.64363 11.069C8.27514 11.7862 8.33799 12.6077 8.76446 13.2592L9.39196 12.8484ZM12.7541 8.8378L8.81271 12.7889L9.3437 13.3186L13.285 9.36747L12.7541 8.8378ZM12.0224 9.17295C12.3236 9.17295 12.5849 9.25392 12.8024 9.40837L13.2367 8.7969C12.8806 8.54402 12.4642 8.42295 12.0224 8.42295V9.17295ZM11.3871 9.33268C11.588 9.22583 11.7981 9.17295 12.0224 9.17295V8.42295C11.6732 8.42295 11.3424 8.50694 11.0349 8.67056L11.3871 9.33268ZM10.5564 9.19835C10.7606 9.40256 11.0849 9.48218 11.3771 9.33783L11.0449 8.6654C11.048 8.66387 11.0526 8.66227 11.0583 8.66153C11.0638 8.6608 11.0689 8.66106 11.0732 8.66187C11.0814 8.66343 11.0855 8.66672 11.0868 8.66802L10.5564 9.19835ZM8.47342 7.07785L10.5541 9.19597L11.0891 8.6704L9.00846 6.55227L8.47342 7.07785ZM7.07731 9.0139L9.00644 7.07989L8.47544 6.55023L6.54631 8.48424L7.07731 9.0139ZM9.17423 10.586L7.07729 8.48422L6.54634 9.01393L8.64328 11.1158L9.17423 10.586ZM9.32849 11.3715C9.41698 11.1346 9.40537 10.8135 9.17179 10.5836L8.64572 11.1182C8.64078 11.1133 8.63663 11.1075 8.63372 11.1016C8.63094 11.096 8.63011 11.092 8.6299 11.0906C8.62971 11.0894 8.63005 11.0906 8.62964 11.0943C8.62922 11.0979 8.62815 11.1031 8.62589 11.1091L9.32849 11.3715Z"
          fill="#5C81C2"/>
</svg>
