<?xml version="1.0" encoding="UTF-8"?>
<svg width="20px" height="20px" viewBox="0 0 20 20" version="1.1" xmlns="http://www.w3.org/2000/svg"
>
    <title>Icon Copy</title>
    <g id="Page-1" stroke="none" stroke-width="1" fill="none" fill-rule="evenodd">
        <g id="Проекты-(процесс)" transform="translate(-30, -160)" fill="#FFFFFF">
            <path d="M41.7142857,169.142857 C41.3988571,169.142857 41.1428571,168.886857 41.1428571,168.571429 L41.1428571,160.571429 C41.1428571,160.256 40.8868571,160 40.5714286,160 L39.4285714,160 C39.1131429,160 38.8571429,160.256 38.8571429,160.571429 L38.8571429,168.571429 C38.8571429,168.886857 38.6011429,169.142857 38.2857143,169.142857 L30.5714286,169.142857 C30.256,169.142857 30,169.398857 30,169.714286 L30,170.857143 C30,171.172571 30.256,171.428571 30.5714286,171.428571 L38.2857143,171.428571 C38.6011429,171.428571 38.8571429,171.684571 38.8571429,172 L38.8571429,179.428571 C38.8571429,179.744 39.1131429,180 39.4285714,180 L40.5714286,180 C40.8868571,180 41.1428571,179.744 41.1428571,179.428571 L41.1428571,172 C41.1428571,171.684571 41.3988571,171.428571 41.7142857,171.428571 L49.4285714,171.428571 C49.744,171.428571 50,171.172571 50,170.857143 L50,169.714286 C50,169.398857 49.744,169.142857 49.4285714,169.142857 L41.7142857,169.142857 Z"
                  id="Icon-Copy"></path>
        </g>
    </g>
</svg>
