<?xml version="1.0" encoding="UTF-8"?>
<svg width="20px" height="20px" viewBox="0 0 20 20" version="1.1" xmlns="http://www.w3.org/2000/svg"
>
    <title>Icon Copy</title>
    <g id="Page-1" stroke="none" stroke-width="1" fill="none" fill-rule="evenodd">
        <g id="Проекты-(процесс)" transform="translate(-30, -120)" fill="#FFFFFF">
            <path d="M49.8336433,138.215805 L44.6588204,133.002719 C44.464536,132.807293 44.4451075,132.506153 44.5953922,132.275299 C46.7170925,129.021049 46.2222386,124.54567 43.0919736,121.872556 C40.0799935,119.301156 35.4954523,119.389155 32.5771859,122.067983 C29.2274938,125.142806 29.1429229,130.376463 32.3246162,133.560428 C35.0377411,136.275826 39.2371419,136.605537 42.3211215,134.565559 C42.5525486,134.412418 42.8559751,134.432418 43.0514024,134.628987 L48.2147969,139.831216 C48.438224,140.055784 48.8005073,140.056356 49.0245058,139.832358 L49.8325005,139.023796 C50.0553562,138.800941 50.0559276,138.439802 49.8336433,138.215805 L49.8336433,138.215805 Z M33.9406055,131.942731 C31.7326201,129.733041 31.7326201,126.137652 33.9406055,123.927962 C36.1485909,121.718272 39.7411386,121.717701 41.949124,123.927962 C44.1571094,126.137652 44.1571094,129.733041 41.949124,131.942731 C39.7411386,134.152421 36.1485909,134.152421 33.9406055,131.942731 L33.9406055,131.942731 Z"
                  id="Icon-Copy"></path>
        </g>
    </g>
</svg>
