<svg width="50" height="50" viewBox="0 0 50 50" fill="none" xmlns="http://www.w3.org/2000/svg">
<path fill-rule="evenodd" clip-rule="evenodd" d="M23.0825 17.1546C23.0825 15.9691 24.0515 15 25.2371 15C26.4227 15 27.3918 15.9691 27.3918 17.1546V23.0825H32.8454C34.0309 23.0825 35 24.0515 35 25.2371C35 26.4227 34.0309 27.3918 32.8454 27.3918H27.3918V32.9588C27.2783 34.0309 26.4227 35 25.2371 35C24.0515 35 23.0825 34.0309 23.0825 32.8454V27.3918H17.0412C15.9691 27.2783 15 26.4227 15 25.2371C15 24.0515 15.9691 23.0825 17.1546 23.0825H23.0825V17.1546Z" fill="black"/>
<path fill-rule="evenodd" clip-rule="evenodd" d="M0 25C0 11.1735 11.1735 0 25 0C38.8265 0 50 11.1735 50 25C50 38.8265 38.8265 50 25 50C11.1735 50 0 38.8265 0 25ZM4.15306 25C4.15306 36.4898 13.5102 45.8469 25 45.8469C36.4898 45.8469 45.8469 36.4898 45.8469 25C45.8469 13.5102 36.4898 4.15306 25 4.15306C13.5102 4.15306 4.15306 13.5102 4.15306 25Z" fill="black"/>
</svg>
