<svg width="50" height="50" viewBox="0 0 50 50" fill="none" xmlns="http://www.w3.org/2000/svg">
<path fill-rule="evenodd" clip-rule="evenodd" d="M0 25C0 11.1735 11.1735 0 25 0C38.8265 0 50 11.1735 50 25C50 38.8265 38.8265 50 25 50C11.1735 50 0 38.8265 0 25ZM4.15306 25C4.15306 36.4898 13.5102 45.8469 25 45.8469C36.4898 45.8469 45.8469 36.4898 45.8469 25C45.8469 13.5102 36.4898 4.15306 25 4.15306C13.5102 4.15306 4.15306 13.5102 4.15306 25Z" fill="black"/>
<path d="M35 25C35 23.8995 34.0309 23 32.8454 23L17.1546 23C15.9691 23 15 23.8995 15 25C15 26.1005 15.9691 27 17.0412 27L32.8454 27C34.0309 26.9904 35 26.0909 35 25Z" fill="black"/>
</svg>
