<svg width="20" height="20" viewBox="0 0 20 20" fill="none" xmlns="http://www.w3.org/2000/svg">
<path fill-rule="evenodd" clip-rule="evenodd" d="M0 10C0 4.46939 4.46939 0 10 0C15.5306 0 20 4.46939 20 10C20 15.5306 15.5306 20 10 20C4.46939 20 0 15.5306 0 10ZM1.66122 10C1.66122 14.5959 5.40408 18.3388 10 18.3388C14.5959 18.3388 18.3388 14.5959 18.3388 10C18.3388 5.40408 14.5959 1.66122 10 1.66122C5.40408 1.66122 1.66122 5.40408 1.66122 10Z" fill="black"/>
<path fill-rule="evenodd" clip-rule="evenodd" d="M13.8084 5.96938C14.1598 6.18875 14.2668 6.65141 14.0474 7.00277L11.3543 11.3162C11.2479 11.4866 11.0776 11.6072 10.8815 11.651C10.6854 11.6948 10.48 11.658 10.3112 11.549L8.62634 10.4606C8.2784 10.2359 8.17855 9.77162 8.4033 9.42369C8.62806 9.07576 9.09231 8.9759 9.44025 9.20066L10.4853 9.87575L12.775 6.20837C12.9944 5.85702 13.457 5.75002 13.8084 5.96938Z" fill="black"/>
<path fill-rule="evenodd" clip-rule="evenodd" d="M5.83325 7.49967C5.83325 6.5792 6.57944 5.83301 7.49992 5.83301H9.99992C10.4602 5.83301 10.8333 6.2061 10.8333 6.66634C10.8333 7.12658 10.4602 7.49967 9.99992 7.49967H7.49992V12.4997H12.4999V11.6663C12.4999 11.2061 12.873 10.833 13.3333 10.833C13.7935 10.833 14.1666 11.2061 14.1666 11.6663V12.4997C14.1666 13.4201 13.4204 14.1663 12.4999 14.1663H7.49992C6.57944 14.1663 5.83325 13.4201 5.83325 12.4997V7.49967Z" fill="black"/>
</svg>
