<svg width="50" height="50" viewBox="0 0 50 50" fill="none" xmlns="http://www.w3.org/2000/svg">
<path fill-rule="evenodd" clip-rule="evenodd" d="M0 25C0 11.1735 11.1735 0 25 0C38.8265 0 50 11.1735 50 25C50 38.8265 38.8265 50 25 50C11.1735 50 0 38.8265 0 25ZM4.15306 25C4.15306 36.4898 13.5102 45.8469 25 45.8469C36.4898 45.8469 45.8469 36.4898 45.8469 25C45.8469 13.5102 36.4898 4.15306 25 4.15306C13.5102 4.15306 4.15306 13.5102 4.15306 25Z" fill="black"/>
<path fill-rule="evenodd" clip-rule="evenodd" d="M21.3877 12.9798L35.8469 23.4084C37.051 24.6125 36.9591 25.7043 35.8571 26.8063L21.3877 37.2349C20.0612 38.1227 18.0918 37.7247 18.0918 35.5308V14.5716C18.0918 12.3676 20.2245 12.2043 21.3877 12.9798ZM22.2347 18.6125V31.388L31.0612 25.0002L22.2347 18.6125Z" fill="black"/>
</svg>
