<svg width="50" height="50" viewBox="0 0 50 50" fill="none" xmlns="http://www.w3.org/2000/svg">
<path fill-rule="evenodd" clip-rule="evenodd" d="M0 25C0 11.1735 11.1735 0 25 0C38.8265 0 50 11.1735 50 25C50 38.8265 38.8265 50 25 50C11.1735 50 0 38.8265 0 25ZM4.15306 25C4.15306 36.4898 13.5102 45.8469 25 45.8469C36.4898 45.8469 45.8469 36.4898 45.8469 25C45.8469 13.5102 36.4898 4.15306 25 4.15306C13.5102 4.15306 4.15306 13.5102 4.15306 25Z" fill="black"/>
<path fill-rule="evenodd" clip-rule="evenodd" d="M29.4281 28.2745L34.7459 33.5618C35.0847 33.9048 35.0847 34.411 34.7459 34.7458C34.4072 35.0847 33.8971 35.0847 33.5583 34.7458L28.2609 29.4381L23.2614 34.4519C23.0288 34.7703 22.3962 34.7867 22.0738 34.4519C20.3719 32.6758 19.8291 30.1608 20.7188 27.9111L15.2541 22.4319C14.9153 22.093 14.9153 21.5826 15.2541 21.2437L21.2698 15.2542C21.6085 14.9153 22.1187 14.9153 22.4574 15.2542L27.8813 20.6966C28.5996 20.3986 29.3628 20.272 30.126 20.272C31.7381 20.272 33.2604 20.909 34.448 22.0562C34.7868 22.3951 34.7868 22.9055 34.448 23.2444L29.4281 28.2745ZM22.4574 28.1275C21.6942 29.6137 21.8207 31.3121 22.7104 32.6717L32.5829 22.7707C31.8646 22.2604 31.0157 22.0072 30.0852 22.0072C29.3669 22.0072 28.6894 22.1787 28.0527 22.5176C27.714 22.685 27.3304 22.5993 27.0773 22.3461L21.8656 17.0384L17.0335 21.8848L22.286 27.1517C22.5431 27.4048 22.5839 27.7886 22.4574 28.1275Z" fill="black"/>
<path d="M34.7459 33.5618L35.2796 33.0347L35.2747 33.03L34.7459 33.5618ZM29.4281 28.2745L28.8973 27.7447L28.3665 28.2765L28.8993 28.8063L29.4281 28.2745ZM34.7459 34.7458L34.2187 34.2124L34.2155 34.2156L34.7459 34.7458ZM33.5583 34.7458L33.0275 35.2757L33.0279 35.2761L33.5583 34.7458ZM28.2609 29.4381L28.7917 28.9083L28.2607 28.3762L27.7298 28.9085L28.2609 29.4381ZM23.2614 34.4519L22.7303 33.9223L22.6897 33.963L22.6558 34.0095L23.2614 34.4519ZM22.0738 34.4519L21.5322 34.9708L21.5335 34.9721L22.0738 34.4519ZM20.7188 27.9111L21.4162 28.1869L21.5971 27.7296L21.2498 27.3815L20.7188 27.9111ZM15.2541 22.4319L15.7851 21.9022L15.7845 21.9016L15.2541 22.4319ZM15.2541 21.2437L14.7249 20.7123L14.7236 20.7135L15.2541 21.2437ZM21.2698 15.2542L21.7989 15.7856L21.8002 15.7844L21.2698 15.2542ZM22.4574 15.2542L22.9886 14.7247L22.9878 14.7239L22.4574 15.2542ZM27.8813 20.6966L27.3501 21.2261L27.7047 21.5819L28.1688 21.3894L27.8813 20.6966ZM34.448 22.0562L34.9785 21.5259L34.9691 21.5168L34.448 22.0562ZM34.448 23.2444L33.9176 22.7141L33.9171 22.7146L34.448 23.2444ZM22.7104 32.6717L22.0829 33.0824L22.5889 33.8558L23.2415 33.2013L22.7104 32.6717ZM22.4574 28.1275L23.1246 28.4701L23.1447 28.431L23.16 28.3898L22.4574 28.1275ZM32.5829 22.7707L33.114 23.3003L33.7398 22.6727L33.0173 22.1594L32.5829 22.7707ZM28.0527 22.5176L28.385 23.19L28.3952 23.185L28.4051 23.1797L28.0527 22.5176ZM27.0773 22.3461L26.5422 22.8716L26.5469 22.8763L27.0773 22.3461ZM21.8656 17.0384L22.4008 16.5129L21.8697 15.9721L21.3345 16.5088L21.8656 17.0384ZM17.0335 21.8848L16.5024 21.3552L15.9743 21.8848L16.5024 22.4144L17.0335 21.8848ZM22.286 27.1517L21.7549 27.6813L21.7598 27.6861L22.286 27.1517ZM35.2747 33.03L29.9569 27.7426L28.8993 28.8063L34.2171 34.0937L35.2747 33.03ZM35.2732 35.2793C35.9125 34.6474 35.9033 33.6663 35.2795 33.0348L34.2123 34.0888C34.2489 34.1259 34.25 34.1511 34.25 34.1569C34.25 34.1617 34.2491 34.1676 34.246 34.1751C34.2428 34.1825 34.2357 34.1957 34.2187 34.2124L35.2732 35.2793ZM33.0279 35.2761C33.6595 35.908 34.6447 35.908 35.2764 35.2761L34.2155 34.2156C34.1828 34.2483 34.1598 34.25 34.1521 34.25C34.1444 34.25 34.1215 34.2483 34.0887 34.2156L33.0279 35.2761ZM27.73 29.9679L33.0275 35.2757L34.0892 34.216L28.7917 28.9083L27.73 29.9679ZM23.7925 34.9814L28.792 29.9677L27.7298 28.9085L22.7303 33.9223L23.7925 34.9814ZM21.5335 34.9721C21.8659 35.3173 22.3188 35.4503 22.708 35.4468C23.0837 35.4434 23.5657 35.3068 23.867 34.8943L22.6558 34.0095C22.6921 33.9598 22.7274 33.944 22.7307 33.9426C22.7339 33.9413 22.7214 33.9466 22.6945 33.9469C22.6684 33.9471 22.6437 33.9423 22.6258 33.9356C22.6084 33.9291 22.6073 33.9247 22.614 33.9316L21.5335 34.9721ZM20.0214 27.6353C19.0183 30.1716 19.6382 32.9942 21.5322 34.9708L22.6153 33.933C21.1056 32.3575 20.6399 30.1499 21.4162 28.1869L20.0214 27.6353ZM14.723 22.9615L20.1878 28.4407L21.2498 27.3815L15.7851 21.9022L14.723 22.9615ZM14.7236 20.7135C14.0921 21.3453 14.0921 22.3303 14.7236 22.9621L15.7845 21.9016C15.7518 21.8689 15.75 21.8458 15.75 21.8378C15.75 21.8298 15.7518 21.8067 15.7845 21.774L14.7236 20.7135ZM20.7406 14.7227L14.7249 20.7123L15.7832 21.7752L21.7989 15.7856L20.7406 14.7227ZM22.9878 14.7239C22.3562 14.092 21.371 14.092 20.7393 14.7239L21.8002 15.7844C21.8329 15.7517 21.8559 15.75 21.8636 15.75C21.8713 15.75 21.8943 15.7517 21.927 15.7844L22.9878 14.7239ZM28.4126 20.1672L22.9886 14.7247L21.9262 15.7836L27.3501 21.2261L28.4126 20.1672ZM30.126 19.522C29.2805 19.522 28.4173 19.6623 27.5939 20.0039L28.1688 21.3894C28.782 21.1349 29.4451 21.022 30.126 21.022V19.522ZM34.9691 21.5168C33.6485 20.241 31.9418 19.522 30.126 19.522V21.022C31.5344 21.022 32.8723 21.5769 33.9269 22.5957L34.9691 21.5168ZM34.9785 23.7746C35.6099 23.1428 35.6099 22.1578 34.9785 21.526L33.9176 22.5865C33.9503 22.6192 33.9521 22.6423 33.9521 22.6503C33.9521 22.6583 33.9503 22.6814 33.9176 22.7141L34.9785 23.7746ZM29.959 28.8043L34.9789 23.7742L33.9171 22.7146L28.8973 27.7447L29.959 28.8043ZM23.338 32.2611C22.5908 31.1192 22.4889 29.7079 23.1246 28.4701L21.7902 27.7849C20.8995 29.5194 21.0507 31.5051 22.0829 33.0824L23.338 32.2611ZM32.0518 22.2412L22.1793 32.1422L23.2415 33.2013L33.114 23.3003L32.0518 22.2412ZM30.0852 22.7572C30.875 22.7572 31.5688 22.9702 32.1485 23.3821L33.0173 22.1594C32.1604 21.5505 31.1564 21.2572 30.0852 21.2572V22.7572ZM28.4051 23.1797C28.9351 22.8976 29.4918 22.7572 30.0852 22.7572V21.2572C29.242 21.2572 28.4438 21.4599 27.7004 21.8556L28.4051 23.1797ZM26.5469 22.8763C27.0063 23.3359 27.7322 23.5126 28.385 23.19L27.7205 21.8452C27.7017 21.8545 27.6872 21.8555 27.6724 21.8527C27.6547 21.8493 27.6307 21.8388 27.6078 21.8159L26.5469 22.8763ZM21.3305 17.5638L26.5422 22.8716L27.6125 21.8207L22.4008 16.5129L21.3305 17.5638ZM17.5646 22.4143L22.3967 17.5679L21.3345 16.5088L16.5024 21.3552L17.5646 22.4143ZM22.817 26.6221L17.5645 21.3552L16.5024 22.4144L21.7549 27.6813L22.817 26.6221ZM23.16 28.3898C23.3625 27.8476 23.331 27.1281 22.8122 26.6172L21.7598 27.6861C21.7628 27.689 21.7704 27.6964 21.7745 27.7231C21.7794 27.754 21.7774 27.8046 21.7548 27.8652L23.16 28.3898Z" fill="black"/>
</svg>
