<svg width="50" height="50" viewBox="0 0 50 50" fill="none" xmlns="http://www.w3.org/2000/svg">
<path fill-rule="evenodd" clip-rule="evenodd" d="M0 25C0 11.1938 11.1938 0 25 0C38.8063 0 50 11.1938 50 25C50 38.8063 38.8063 50 25 50C11.1938 50 0 38.8063 0 25ZM45.8333 25C45.8333 13.5125 36.4875 4.16667 25 4.16667C13.5125 4.16667 4.16667 13.5125 4.16667 25C4.16667 36.4875 13.5125 45.8333 25 45.8333C36.4875 45.8333 45.8333 36.4875 45.8333 25ZM27.6042 35.4167C27.6042 36.8542 26.4396 38.0208 25 38.0208C23.5646 38.0208 22.3958 36.8542 22.3958 35.4167C22.3958 33.9792 23.5646 32.8125 25 32.8125C26.4396 32.8125 27.6042 33.9792 27.6042 35.4167ZM25.1917 12.5979C27.35 12.5979 29.2396 13.3042 30.5062 14.5875C31.6937 15.7917 32.3083 17.4479 32.2854 19.3729C32.25 22.2563 30.4958 24.1479 29.0854 25.6688C27.2 27.7 27.1104 28.8229 27.1375 30.2062H22.9604C22.9479 27.1333 23.0021 25.7792 25.9437 22.9813C27.1354 21.8479 28.0771 20.9521 27.9479 19.1875C27.8292 17.5104 26.4271 16.6333 25.1063 16.6333C23.6292 16.6333 21.9021 17.7313 21.9021 20.8271H17.7125C17.7125 15.8271 20.65 12.5979 25.1917 12.5979Z" fill="black"/>
</svg>
