<svg width="50" height="50" viewBox="0 0 50 50" fill="none" xmlns="http://www.w3.org/2000/svg">
<path fill-rule="evenodd" clip-rule="evenodd" d="M0 25C0 11.1735 11.1735 0 25 0C38.8265 0 50 11.1735 50 25C50 38.8265 38.8265 50 25 50C11.1735 50 0 38.8265 0 25ZM4.15306 25C4.15306 36.4898 13.5102 45.8469 25 45.8469C36.4898 45.8469 45.8469 36.4898 45.8469 25C45.8469 13.5102 36.4898 4.15306 25 4.15306C13.5102 4.15306 4.15306 13.5102 4.15306 25Z" fill="black"/>
<path d="M19.1522 15.1021C17.9787 15.1021 17.0195 16.0612 17.0195 17.2347V32.7653C17.0195 33.9388 17.9787 34.898 19.1522 34.898C20.3257 34.898 21.2848 33.9388 21.2848 32.8776V17.2347C21.2746 16.0612 20.3154 15.1021 19.1522 15.1021Z" fill="black"/>
<path d="M31.1327 15C29.9592 15 29 15.9592 29 17.1327V32.6633C29 33.8367 29.9592 34.7959 31.1327 34.7959C32.3061 34.7959 33.1531 33.8367 33.2653 32.7755V17.1327C33.2653 15.9592 32.3061 15 31.1327 15Z" fill="black"/>
</svg>
