<svg width="50" height="50" viewBox="0 0 50 50" fill="none" xmlns="http://www.w3.org/2000/svg">
<path fill-rule="evenodd" clip-rule="evenodd" d="M0 25C0 38.8265 11.1735 50 25 50C38.8265 50 50 38.8265 50 25C50 11.1735 38.8265 0 25 0C11.1735 0 0 11.1735 0 25ZM4.15306 25C4.15306 13.5102 13.5102 4.15306 25 4.15306C36.4898 4.15306 45.8469 13.5102 45.8469 25C45.8469 36.4898 36.4898 45.8469 25 45.8469C13.5102 45.8469 4.15306 36.4898 4.15306 25Z" fill="black"/>
<path d="M20.1011 33.5104L14.8971 25.7451C14.2542 24.7859 14.4685 23.5104 15.4277 22.8778C16.3868 22.2451 17.6624 22.4492 18.295 23.4084L22.1215 29.0512L31.8868 19.2859C32.7134 18.4594 34.0705 18.4288 34.8971 19.2655C35.744 20.1125 35.7338 21.388 34.8868 22.2349L23.295 33.7247C22.9583 34.1431 21.3256 35.0308 20.1011 33.5104Z" fill="black"/>
</svg>
