<?xml version="1.0" encoding="UTF-8"?>
<svg width="25px" height="24px" viewBox="0 0 25 24" version="1.1" xmlns="http://www.w3.org/2000/svg"
>
    <title>logo</title>
    <g id="Page-1" stroke="none" stroke-width="1" fill="none" fill-rule="evenodd">
        <g id="Проекты-(процесс)" transform="translate(-24, -28)" fill="#3D4044" fill-rule="nonzero">
            <g id="logo" transform="translate(24, 28)">
                <path d="M22.1193316,11.050821 C21.9973222,10.3694548 21.8753128,9.6880887 21.7533034,9.00948112 C21.7338929,9.15016806 21.7172552,9.29361356 21.6978446,9.4343005 C22.2662975,8.6894873 22.8319774,7.94191554 23.4004303,7.19710234 C23.4808456,7.09227678 23.5612608,6.98745122 23.6416761,6.87986709 C23.7997338,6.67297454 23.6971349,6.38884209 23.555715,6.21229378 C22.7182868,5.17783101 21.8836317,4.14336823 21.0462035,3.10890546 C20.92974,2.96545995 20.8132765,2.81925588 20.696813,2.67581038 C20.5858954,2.53788201 20.3196931,2.46891782 20.1560895,2.53512344 C19.246565,2.89649577 18.3342674,3.26062666 17.4247429,3.62199899 C17.2971876,3.67441177 17.1668594,3.72406599 17.0393041,3.77647877 C17.1807241,3.79578874 17.324917,3.81234014 17.466337,3.83165012 C16.9533429,3.56406908 16.4403489,3.29648804 15.9273548,3.028907 C16.013316,3.1392497 16.0965042,3.24959239 16.1824654,3.35993509 C15.9245819,2.4965035 15.6694713,1.63583047 15.4115878,0.772398871 C15.3755396,0.651021906 15.3394914,0.526886373 15.3034431,0.405509407 C15.2341196,0.171031179 15.0150573,0 14.7682656,0 C13.4400269,0 12.1117883,0 10.7835496,0 C10.5977626,0 10.4092026,0 10.2234156,0 C9.97662387,0 9.75756155,0.171031179 9.68823803,0.405509407 C9.43035454,1.268941 9.17524398,2.12961403 8.91736049,2.99304563 C8.88131226,3.11442259 8.84526403,3.23855813 8.8092158,3.35993509 C8.89517696,3.24959239 8.97836519,3.1392497 9.06432635,3.028907 C8.5513323,3.29648804 8.03833825,3.56406908 7.52534421,3.83165012 C7.66676419,3.81234014 7.81095711,3.79578874 7.95237709,3.77647877 C7.04285251,3.41510644 6.13055498,3.05097554 5.2210304,2.68960321 C5.09347513,2.63719043 4.96314691,2.58753622 4.83559163,2.53512344 C4.67198812,2.46891782 4.40578581,2.54064057 4.29486818,2.67581038 C3.45744005,3.71027315 2.62278487,4.74473592 1.78535675,5.7791987 C1.66889324,5.9226442 1.55242973,6.06884828 1.43596621,6.21229378 C1.29454623,6.38608353 1.19194742,6.6757331 1.35000505,6.87986709 C1.91845791,7.62468029 2.48413783,8.37225205 3.0525907,9.11706525 C3.13300598,9.22189081 3.21342126,9.32671637 3.29383655,9.4343005 C3.27442596,9.29361356 3.25778832,9.15016806 3.23837773,9.00948112 C3.11636834,9.69084727 2.99435894,10.3722134 2.87234955,11.050821 C2.95831071,10.9404783 3.04149893,10.8301356 3.1274601,10.7197929 C2.29280492,11.1363366 1.4553768,11.5501217 0.620721617,11.9666654 C0.504258103,12.0245953 0.385021649,12.0825252 0.268558136,12.1432137 C0.04117699,12.2563149 -0.0336924115,12.5376888 0.013447582,12.7666499 C0.271331076,13.9942124 0.529214571,15.2190163 0.784325124,16.4465788 C0.820373355,16.61761 0.856421585,16.7886412 0.892469815,16.9624309 C0.945155691,17.2134606 1.19194742,17.3458718 1.42764739,17.3679403 C2.38985785,17.4534559 3.34929536,17.5389715 4.31150582,17.6217285 C4.45015286,17.6327628 4.5887999,17.6465556 4.72744694,17.6575899 C4.56661637,17.5665572 4.40855875,17.4755245 4.24772818,17.3844917 C4.6026646,17.8699996 4.95760103,18.358266 5.30976451,18.8437739 C5.28480804,18.7499826 5.25985157,18.6589499 5.23489511,18.5651586 C5.12675042,19.4479002 5.02137867,20.3334003 4.91323397,21.2161419 C4.89936927,21.3402774 4.88273163,21.4671715 4.86886692,21.591307 C4.84668339,21.7650968 4.98533043,21.9940579 5.14338806,22.0685392 C6.28861261,22.611977 7.43383716,23.1554147 8.57906171,23.6988525 C8.74266522,23.7760924 8.90349578,23.8533323 9.06709929,23.9305722 C9.28616161,24.0353977 9.56068275,24.0326392 9.73815096,23.8450566 C10.3481979,23.2078275 10.955472,22.5678399 11.565519,21.9306108 C11.6514801,21.8395781 11.7402142,21.7485454 11.8261754,21.6575126 C11.6958472,21.712684 11.565519,21.7650968 11.4351907,21.8202681 C12.1450636,21.8202681 12.8521635,21.8202681 13.5620363,21.8202681 C13.4317081,21.7650968 13.3013799,21.712684 13.1710517,21.6575126 C13.7810986,22.2947417 14.3911456,22.9347293 14.9984197,23.5719584 C15.0843808,23.6629911 15.1731149,23.7540239 15.2590761,23.8450566 C15.4393172,24.0326392 15.7110654,24.0353977 15.9301278,23.9305722 C17.0753523,23.3871344 18.2205769,22.8436966 19.3658014,22.3002588 C19.5294049,22.223019 19.6902355,22.1457791 19.853839,22.0685392 C20.0118966,21.9940579 20.1505437,21.7678553 20.1283601,21.591307 C20.0202154,20.7085655 19.9148437,19.8230653 19.806699,18.9403238 C19.7928343,18.8161882 19.7761967,18.6892941 19.762332,18.5651586 C19.7373755,18.6589499 19.712419,18.7499826 19.6874626,18.8437739 C20.042399,18.358266 20.3973354,17.8699996 20.7522718,17.3844917 C20.5914413,17.4755245 20.4333836,17.5665572 20.2725531,17.6575899 C21.2347635,17.5720743 22.194201,17.4865587 23.1564115,17.4038017 C23.2950585,17.3927674 23.4337056,17.3789746 23.5723526,17.3679403 C23.8052796,17.3486304 24.0548443,17.2134606 24.1075302,16.9624309 C24.3654137,15.7348684 24.6232972,14.5100645 24.8784077,13.282502 C24.914456,13.1114708 24.9505042,12.9404397 24.9865524,12.7666499 C25.0336924,12.5376888 24.958823,12.2563149 24.7314419,12.1432137 C23.8967867,11.72667 23.0593586,11.3128849 22.2247034,10.8963412 C22.1082399,10.8384113 21.9890034,10.7804814 21.8725399,10.7197929 C21.6146564,10.5901402 21.25972,10.642553 21.1127541,10.9184098 C20.979653,11.1694394 21.0351118,11.5363289 21.3124059,11.6742572 C22.147061,12.0908009 22.9844892,12.504586 23.8191443,12.9211297 C23.9356079,12.9790596 24.0548443,13.0369895 24.1713078,13.097678 C24.0853467,12.8907855 24.0021584,12.6811343 23.9161973,12.4742418 C23.6583138,13.7018043 23.4004303,14.9266082 23.1453197,16.1541707 C23.1092715,16.3252019 23.0732233,16.496233 23.037175,16.6700228 C23.2146432,16.534853 23.3948844,16.3996832 23.5723526,16.2645134 C22.4742681,16.3610632 21.3734106,16.4438203 20.2780989,16.5569215 C20.0562637,16.5789901 19.9259355,16.6562299 19.7928343,16.8327783 C19.7734237,16.8576054 19.7540131,16.885191 19.7346025,16.9127767 C19.6458684,17.0341537 19.5571343,17.1555306 19.4684002,17.2769076 C19.2548838,17.5693158 19.0413673,17.8617239 18.8306238,18.154132 C18.7363439,18.2837847 18.6476098,18.3913688 18.6559286,18.5706757 C18.6587015,18.6230885 18.6697933,18.6755013 18.6753392,18.7279141 C18.7113874,19.0368736 18.7502086,19.3430746 18.7862568,19.6520341 C18.8638991,20.3002975 18.9443144,20.9485608 19.0219568,21.5968242 C19.1134638,21.4368272 19.2049709,21.2795889 19.2964779,21.119592 C18.1512533,21.6630298 17.0060288,22.2064676 15.8608042,22.7499053 C15.6972007,22.8271452 15.5363702,22.9043851 15.3727667,22.981625 C15.5973749,23.0092107 15.8219831,23.0395549 16.0438183,23.0671406 C15.6583796,22.6616312 15.2701679,22.2588803 14.8847291,21.8533709 C14.6434832,21.6023413 14.4050103,21.3513117 14.1637645,21.100282 C13.9752045,20.9044237 13.8365575,20.7223583 13.5232152,20.7168412 C12.8771199,20.7030483 12.2310247,20.7168412 11.5849295,20.7168412 C11.3852778,20.7168412 11.2050366,20.7223583 11.0414331,20.8795966 C11.0053849,20.9126994 10.9748826,20.9513194 10.9388343,20.9871808 C10.7280908,21.2078662 10.5173473,21.4285515 10.3038309,21.6519955 C9.85184154,22.1237105 9.39985219,22.5981841 8.95063578,23.0698991 C9.17524398,23.0423135 9.39985219,23.0119692 9.62168745,22.9843836 C8.4764629,22.4409458 7.33123835,21.897508 6.1860138,21.3540702 C6.02241029,21.2768303 5.86157973,21.1995905 5.69797622,21.1223506 C5.78948327,21.2823475 5.88099031,21.4395858 5.97249736,21.5995827 C6.03904794,21.0506278 6.10559852,20.4989143 6.1721491,19.9499594 C6.21374321,19.5996214 6.25811026,19.2520419 6.29970437,18.9017038 C6.32743378,18.6782599 6.3828926,18.4741259 6.24424556,18.2672333 C5.91703854,17.7789669 5.5537833,17.3100104 5.20439276,16.8382954 C5.0712916,16.6617471 4.94096338,16.5845072 4.71912812,16.5624387 C4.69694459,16.5596801 4.67753401,16.5596801 4.65535048,16.5569215 C4.55829755,16.5486458 4.46124462,16.5403701 4.3641917,16.5320944 C4.0175741,16.5017502 3.66818356,16.4714059 3.32156596,16.4410617 C2.68933545,16.3858903 2.05710495,16.3279604 1.42487445,16.2727891 C1.60234266,16.4079589 1.78258381,16.5431287 1.96005202,16.6782985 C1.70216853,15.450736 1.44428503,14.2259321 1.18917448,12.9983696 C1.15312625,12.8273384 1.11707802,12.6563072 1.08102979,12.4825175 C0.995068625,12.68941 0.911880401,12.8990612 0.825919236,13.1059537 C1.33891328,12.8494069 1.85468027,12.5956187 2.36767432,12.339072 C2.70042722,12.1735579 3.03318011,12.0080439 3.36593301,11.8425298 C3.60717886,11.7239114 3.87615412,11.6328787 3.94547764,11.3349534 C4.08967056,10.7032415 4.17563172,10.0549782 4.28932229,9.4177491 C4.32259758,9.23568365 4.35864581,9.05085963 4.25050112,8.88258702 C4.21445289,8.82741567 4.17008584,8.77500289 4.12849173,8.72259011 C3.92883999,8.46052621 3.72918825,8.19846231 3.52953652,7.93363984 C3.12191422,7.39847776 2.71706486,6.86607425 2.30944256,6.33091218 C2.28171316,6.55435614 2.25121081,6.7778001 2.2234814,6.99848549 C3.06090952,5.96402271 3.8955647,4.92955994 4.73299282,3.89509717 C4.84945634,3.75165166 4.96591985,3.60544759 5.08238336,3.46200208 C4.90214221,3.50889773 4.72190106,3.55579338 4.54165991,3.60268902 C5.03524337,3.79854731 5.52882683,3.99440559 6.02241029,4.19302244 C6.37457377,4.33370938 6.7295102,4.47439632 7.08167368,4.61508326 C7.27023365,4.68956458 7.45602069,4.77783873 7.6473536,4.84128578 C7.93851239,4.93783564 8.30454057,4.67577174 8.55687818,4.5433605 C8.87299343,4.37784646 9.19188163,4.21233242 9.50799688,4.04681837 C9.67991921,3.95578565 9.81024742,3.85923579 9.87957094,3.65234323 C9.89898153,3.59441332 9.91284623,3.5364834 9.93225682,3.47855349 C10.0237639,3.17511107 10.112498,2.87166866 10.204005,2.57098481 C10.3897921,1.94754858 10.5755791,1.32411235 10.7613661,0.703434686 C10.5838979,0.838604489 10.4036568,0.973774291 10.2261885,1.10894409 C11.5544272,1.10894409 12.8826658,1.10894409 14.2109045,1.10894409 C14.3966915,1.10894409 14.5852515,1.10894409 14.7710385,1.10894409 C14.5935703,0.973774291 14.4133292,0.838604489 14.2358609,0.703434686 C14.3939186,1.23032106 14.5492033,1.75720743 14.7072609,2.28685237 C14.8098597,2.62891473 14.9096856,2.96821852 15.0122844,3.31028088 C15.0871538,3.56131051 15.1342938,3.85096009 15.3838584,3.99440559 C15.6417419,4.14336823 15.9134901,4.27026233 16.1769195,4.4081907 C16.4209383,4.5350848 16.6621841,4.66749604 16.9089759,4.788873 C17.2167723,4.94059421 17.4275158,4.80818297 17.7075828,4.69784028 C18.0347898,4.56818761 18.3647698,4.43577638 18.6919768,4.30612371 C19.2798403,4.07164548 19.8677037,3.83716725 20.4555672,3.60544759 C20.275326,3.55855194 20.0950848,3.5116563 19.9148437,3.46476065 C20.7522718,4.49922343 21.586927,5.5336862 22.4243551,6.56814897 C22.5408186,6.71159448 22.6572821,6.85779855 22.7737457,7.00124406 C22.7460163,6.7778001 22.7155139,6.55435614 22.6877845,6.33367075 C22.2247034,6.94331414 21.7588493,7.55295754 21.2957682,8.16260093 C21.1155271,8.39707916 20.9047836,8.62879882 20.7494989,8.87982845 C20.6302624,9.07292817 20.6829483,9.28257929 20.7217695,9.48947185 C20.7605906,9.70464011 20.7994118,9.9170498 20.838233,10.1322181 C20.9103294,10.540486 20.9851988,10.948754 21.0572953,11.3542634 C21.1072082,11.6383959 21.4732364,11.8259784 21.7394387,11.7404628 C22.0389163,11.6301201 22.1720175,11.357022 22.1193316,11.050821 Z"
                      id="Shape"></path>
                <path d="M12.4970907,14.9464445 C12.3991067,14.9464445 12.3011227,14.9438106 12.2004905,14.9359091 C12.1528226,14.9332753 12.1025065,14.9280076 12.0548386,14.9227399 C11.9542063,14.9148384 12.0786725,14.9306414 12.0866172,14.9280076 C12.0627832,14.9332753 12.0204118,14.9174723 11.9965778,14.9148384 C11.803258,14.8832324 11.6099382,14.8384572 11.4245631,14.7778789 C11.3345237,14.7489067 11.2471326,14.7173007 11.1597415,14.6830608 C11.0670539,14.6461871 11.1862236,14.69623 11.1888719,14.69623 C11.1835754,14.6988639 11.1359075,14.6725255 11.1253147,14.6672578 C11.0776468,14.6461871 11.0299789,14.6224826 10.9849592,14.5987781 C10.8154734,14.5118615 10.651284,14.4144095 10.4950392,14.3037884 C10.468557,14.2853516 10.3970552,14.2511117 10.3838141,14.2221395 C10.4049998,14.2642809 10.4579642,14.2827177 10.4102963,14.2405763 C10.3917588,14.2247733 10.3732213,14.2116041 10.357332,14.1958011 C10.2831819,14.1325891 10.2090318,14.069377 10.13753,14.0008973 C10.0713246,13.9376852 10.0077674,13.8718393 9.94421022,13.8033595 C9.91243163,13.7691197 9.88330125,13.7348798 9.85417087,13.7006399 C9.83828157,13.6822031 9.82504049,13.6664 9.8091512,13.6479632 C9.75089044,13.5768496 9.78531725,13.6453294 9.81709584,13.6611324 C9.7614833,13.6374278 9.68998147,13.4872992 9.65820287,13.4372563 C9.60523855,13.3556074 9.55227422,13.2713246 9.50460633,13.184408 C9.45958665,13.1027591 9.41721519,13.0211102 9.37749195,12.9368274 C9.36689908,12.9157567 9.35895444,12.894686 9.34836157,12.8736153 C9.31658298,12.8104033 9.3854366,12.9684334 9.36160265,12.9025875 C9.34306514,12.8525447 9.32187941,12.8051356 9.3033419,12.7550927 C9.23713649,12.573358 9.18417216,12.3837218 9.14444892,12.1940856 C9.13385606,12.1466765 9.12591141,12.0992675 9.11796676,12.0518584 C9.11531854,12.0281539 9.11002211,12.0044494 9.10737389,11.9807449 C9.09678103,11.9069974 9.11796676,12.0860983 9.11267033,12.0123509 C9.10207746,11.9096313 9.0914846,11.8069117 9.08883638,11.7041921 C9.08089173,11.5013867 9.09413281,11.3012151 9.11267033,11.0984097 C9.12061498,11.0246623 9.09678103,11.2037632 9.10737389,11.1300158 C9.11002211,11.1063112 9.11531854,11.0826067 9.11796676,11.0589022 C9.12591141,11.0114931 9.13385606,10.9640841 9.14444892,10.916675 C9.16563465,10.8192231 9.18682038,10.7191373 9.21595076,10.6243192 C9.24243292,10.5347688 9.2715633,10.4452183 9.3033419,10.3556679 C9.31923119,10.3108927 9.33776871,10.2687513 9.353658,10.2239761 C9.38014017,10.1554963 9.33512049,10.2292438 9.34041692,10.2529483 C9.33512049,10.2371453 9.3695473,10.1871024 9.37749195,10.1739332 C9.45693844,10.0001 9.55227422,9.83416832 9.65555465,9.67350431 C9.68998147,9.62346142 9.75883509,9.47069892 9.81444763,9.44962823 C9.8091512,9.45226207 9.73500114,9.54971401 9.79591011,9.4759666 C9.81179941,9.45752974 9.82504049,9.43909289 9.84092979,9.42328987 C9.8753566,9.38378233 9.9071352,9.34427478 9.94156201,9.30740108 C10.0686764,9.16780776 10.2063836,9.03611594 10.3520355,8.91495948 C10.370573,8.89915646 10.3891106,8.88598728 10.4049998,8.87018426 C10.4526677,8.83067672 10.3997034,8.84647973 10.3785177,8.88862111 C10.3917588,8.85964892 10.4632606,8.82540904 10.4897428,8.80697219 C10.5691893,8.75166163 10.651284,8.69635107 10.7360269,8.64630818 C10.8154734,8.59889913 10.8975681,8.55412391 10.9796628,8.51198253 C11.0167378,8.49354568 11.0538128,8.47510883 11.0882396,8.45930581 C11.1094254,8.44877046 11.1306111,8.44086895 11.1517968,8.43033361 C11.2630219,8.37765688 11.0405717,8.47247499 11.154445,8.42769977 C11.337172,8.35658619 11.5198989,8.29600796 11.7105705,8.25123275 C11.803258,8.23016206 11.8985938,8.20909137 11.9912814,8.19592218 C12.0098189,8.19328835 12.0257082,8.19065451 12.0442457,8.18802068 C12.1395815,8.17221766 12.02306,8.19328835 12.0124671,8.19328835 C12.0707279,8.19592218 12.134285,8.18011917 12.195194,8.17485149 C12.3991067,8.15904848 12.6030193,8.16168231 12.8042838,8.17748533 C12.8519516,8.18011917 12.9022678,8.18802068 12.9499356,8.19065451 C13.0240857,8.19855602 12.844007,8.17485149 12.9181571,8.18538684 C12.9366946,8.18802068 12.9552321,8.19065451 12.9711214,8.19328835 C13.07705,8.20909137 13.1829787,8.23016206 13.2889073,8.25650042 C13.4795789,8.30390947 13.6623058,8.36712154 13.8423845,8.43560128 C13.9085899,8.46193964 13.749697,8.3934599 13.8132541,8.4224321 C13.8344399,8.43296745 13.8556256,8.44086895 13.8768113,8.4514043 C13.9138864,8.46720732 13.9509614,8.48564417 13.9880364,8.50408102 C14.080724,8.55149008 14.1734115,8.60153296 14.2634509,8.65420969 C14.3428974,8.70161874 14.4196957,8.75166163 14.4964939,8.80433835 C14.5203279,8.82014137 14.5971261,8.85964892 14.607719,8.88598728 C14.6050708,8.88071961 14.5070868,8.80697219 14.5812368,8.86755042 C14.6024226,8.88598728 14.6262565,8.90442413 14.6474423,8.92286099 C14.7930941,9.04401745 14.9308014,9.17570926 15.0552676,9.31793642 C15.0870461,9.35217629 15.1161765,9.38641616 15.1453069,9.42328987 C15.1611962,9.44172672 15.1744373,9.46016358 15.1903266,9.4759666 C15.2300498,9.52337565 15.2141605,9.47333276 15.1717891,9.44962823 C15.2009194,9.46279741 15.2353463,9.53391099 15.2538838,9.56024935 C15.2830142,9.60239073 15.3121445,9.64453211 15.3412749,9.68930733 C15.4445553,9.84997134 15.5372429,10.015903 15.6166894,10.1897362 C15.6219858,10.2002716 15.648468,10.2476806 15.6458198,10.2529483 C15.6458198,10.2503144 15.5955037,10.1317918 15.6325787,10.2239761 C15.648468,10.2687513 15.6670055,10.3108927 15.6828948,10.3556679 C15.7146734,10.4425845 15.7438038,10.5321349 15.7702859,10.6243192 C15.7967681,10.7165035 15.8179538,10.8086877 15.8391396,10.900872 C15.8497324,10.9482811 15.8576771,10.9956901 15.8656217,11.0404653 C15.8709182,11.0641698 15.8735664,11.0878744 15.8762146,11.1115789 C15.8974003,11.2353692 15.8656217,10.9877886 15.8762146,11.1142127 C15.8947521,11.3091166 15.905345,11.5040205 15.8974003,11.7015582 C15.8947521,11.7990102 15.8841592,11.8964621 15.8762146,11.993914 C15.8682699,12.0887321 15.8788628,11.9754772 15.881511,11.962308 C15.8762146,11.9860125 15.8735664,12.0097171 15.8709182,12.0334216 C15.8603253,12.091366 15.8497324,12.1519442 15.8391396,12.2098886 C15.8020645,12.3942571 15.7491002,12.5759918 15.685543,12.7524589 C15.6696537,12.7972341 15.6511162,12.8393755 15.6352269,12.8841507 C15.5981519,12.976335 15.648468,12.8578123 15.648468,12.8551785 C15.6511162,12.8604462 15.624634,12.9078552 15.6193376,12.9183906 C15.5769662,13.0132087 15.5292983,13.1053929 15.4763339,13.1975772 C15.4339625,13.2739584 15.3889428,13.3477059 15.3412749,13.4188194 C15.3147927,13.458327 15.2909588,13.4952007 15.2644766,13.5320744 C15.2432909,13.5610466 15.2035677,13.6426955 15.1717891,13.6584985 C15.2141605,13.6374278 15.2300498,13.5847511 15.1903266,13.6321602 C15.1744373,13.650597 15.1611962,13.6690339 15.1453069,13.6848369 C15.1161765,13.7190768 15.0870461,13.7559505 15.0552676,13.7901904 C14.9864139,13.8665716 14.9149121,13.940319 14.8381138,14.0114326 C14.7745566,14.0720108 14.7109994,14.1273214 14.644794,14.182632 C14.631553,14.1931673 14.5123832,14.2932531 14.5759404,14.2379425 C14.6342012,14.1878996 14.5759404,14.2379425 14.5600511,14.2484779 C14.5362172,14.2642809 14.5123832,14.2827177 14.4911975,14.2985207 C14.3296563,14.4117757 14.1601705,14.5118615 13.9853882,14.6014119 C13.9483132,14.6198488 13.9112381,14.6382856 13.8741631,14.6540886 C13.8529774,14.664624 13.8317917,14.6725255 13.8106059,14.6830608 C13.7470487,14.7146669 13.9059417,14.6461871 13.8397363,14.6698917 C13.7470487,14.7041315 13.6543612,14.7410052 13.5590254,14.7726113 C13.3657056,14.8331895 13.1697376,14.8805986 12.9684732,14.9122046 C12.9499356,14.9148384 12.9313981,14.9174723 12.9155088,14.9201061 C12.8413588,14.9306414 13.0214375,14.9095708 12.9472874,14.9148384 C12.8996195,14.9201061 12.8493034,14.9253738 12.8016355,14.9280076 C12.7062998,14.9411768 12.6030193,14.9438106 12.4970907,14.9464445 C12.219028,14.9464445 11.9542063,15.1887574 11.9674474,15.4732117 C11.9806885,15.757666 12.2004905,16.0026128 12.4970907,16 C13.4054288,15.9947113 14.3217117,15.7234261 15.0632122,15.1913912 C15.8179538,14.6514548 16.3846721,13.9192483 16.7051063,13.0500824 C17.3380299,11.3407227 16.7819045,9.3021334 15.3624606,8.14851313 C14.6289047,7.55326614 13.7576416,7.19769825 12.8122284,7.12395084 C11.9065385,7.05283726 10.9690699,7.27934717 10.1931425,7.74817002 C9.44369736,8.20118986 8.81342189,8.88071961 8.45061627,9.67613815 C8.05073562,10.5532056 7.93686232,11.5092882 8.12223746,12.4522015 C8.46915378,14.2089703 9.97069239,15.6602141 11.7529419,15.9314992 C11.999226,15.9683729 12.2481583,15.9947113 12.4970907,15.9947113 C12.7751534,15.9947113 13.039975,15.7523983 13.0267339,15.467944 C13.0134928,15.1861236 12.7936909,14.9464445 12.4970907,14.9464445 Z"
                      id="Shape"></path>
            </g>
        </g>
    </g>
</svg>
