<svg style="display: none">
    <symbol id="logo" viewBox="0 0 25 24" xmlns="http://www.w3.org/2000/svg">
        <title>logo</title>
        <g stroke="none" stroke-width="1" fill="inherit" fill-rule="evenodd">
            <g transform="translate(-24, -28)" fill="inherit" fill-rule="nonzero">
                <g transform="translate(24, 28)">
                    <path d="M22.1193316,11.050821 C21.9973222,10.3694548 21.8753128,9.6880887 21.7533034,9.00948112 C21.7338929,9.15016806 21.7172552,9.29361356 21.6978446,9.4343005 C22.2662975,8.6894873 22.8319774,7.94191554 23.4004303,7.19710234 C23.4808456,7.09227678 23.5612608,6.98745122 23.6416761,6.87986709 C23.7997338,6.67297454 23.6971349,6.38884209 23.555715,6.21229378 C22.7182868,5.17783101 21.8836317,4.14336823 21.0462035,3.10890546 C20.92974,2.96545995 20.8132765,2.81925588 20.696813,2.67581038 C20.5858954,2.53788201 20.3196931,2.46891782 20.1560895,2.53512344 C19.246565,2.89649577 18.3342674,3.26062666 17.4247429,3.62199899 C17.2971876,3.67441177 17.1668594,3.72406599 17.0393041,3.77647877 C17.1807241,3.79578874 17.324917,3.81234014 17.466337,3.83165012 C16.9533429,3.56406908 16.4403489,3.29648804 15.9273548,3.028907 C16.013316,3.1392497 16.0965042,3.24959239 16.1824654,3.35993509 C15.9245819,2.4965035 15.6694713,1.63583047 15.4115878,0.772398871 C15.3755396,0.651021906 15.3394914,0.526886373 15.3034431,0.405509407 C15.2341196,0.171031179 15.0150573,0 14.7682656,0 C13.4400269,0 12.1117883,0 10.7835496,0 C10.5977626,0 10.4092026,0 10.2234156,0 C9.97662387,0 9.75756155,0.171031179 9.68823803,0.405509407 C9.43035454,1.268941 9.17524398,2.12961403 8.91736049,2.99304563 C8.88131226,3.11442259 8.84526403,3.23855813 8.8092158,3.35993509 C8.89517696,3.24959239 8.97836519,3.1392497 9.06432635,3.028907 C8.5513323,3.29648804 8.03833825,3.56406908 7.52534421,3.83165012 C7.66676419,3.81234014 7.81095711,3.79578874 7.95237709,3.77647877 C7.04285251,3.41510644 6.13055498,3.05097554 5.2210304,2.68960321 C5.09347513,2.63719043 4.96314691,2.58753622 4.83559163,2.53512344 C4.67198812,2.46891782 4.40578581,2.54064057 4.29486818,2.67581038 C3.45744005,3.71027315 2.62278487,4.74473592 1.78535675,5.7791987 C1.66889324,5.9226442 1.55242973,6.06884828 1.43596621,6.21229378 C1.29454623,6.38608353 1.19194742,6.6757331 1.35000505,6.87986709 C1.91845791,7.62468029 2.48413783,8.37225205 3.0525907,9.11706525 C3.13300598,9.22189081 3.21342126,9.32671637 3.29383655,9.4343005 C3.27442596,9.29361356 3.25778832,9.15016806 3.23837773,9.00948112 C3.11636834,9.69084727 2.99435894,10.3722134 2.87234955,11.050821 C2.95831071,10.9404783 3.04149893,10.8301356 3.1274601,10.7197929 C2.29280492,11.1363366 1.4553768,11.5501217 0.620721617,11.9666654 C0.504258103,12.0245953 0.385021649,12.0825252 0.268558136,12.1432137 C0.04117699,12.2563149 -0.0336924115,12.5376888 0.013447582,12.7666499 C0.271331076,13.9942124 0.529214571,15.2190163 0.784325124,16.4465788 C0.820373355,16.61761 0.856421585,16.7886412 0.892469815,16.9624309 C0.945155691,17.2134606 1.19194742,17.3458718 1.42764739,17.3679403 C2.38985785,17.4534559 3.34929536,17.5389715 4.31150582,17.6217285 C4.45015286,17.6327628 4.5887999,17.6465556 4.72744694,17.6575899 C4.56661637,17.5665572 4.40855875,17.4755245 4.24772818,17.3844917 C4.6026646,17.8699996 4.95760103,18.358266 5.30976451,18.8437739 C5.28480804,18.7499826 5.25985157,18.6589499 5.23489511,18.5651586 C5.12675042,19.4479002 5.02137867,20.3334003 4.91323397,21.2161419 C4.89936927,21.3402774 4.88273163,21.4671715 4.86886692,21.591307 C4.84668339,21.7650968 4.98533043,21.9940579 5.14338806,22.0685392 C6.28861261,22.611977 7.43383716,23.1554147 8.57906171,23.6988525 C8.74266522,23.7760924 8.90349578,23.8533323 9.06709929,23.9305722 C9.28616161,24.0353977 9.56068275,24.0326392 9.73815096,23.8450566 C10.3481979,23.2078275 10.955472,22.5678399 11.565519,21.9306108 C11.6514801,21.8395781 11.7402142,21.7485454 11.8261754,21.6575126 C11.6958472,21.712684 11.565519,21.7650968 11.4351907,21.8202681 C12.1450636,21.8202681 12.8521635,21.8202681 13.5620363,21.8202681 C13.4317081,21.7650968 13.3013799,21.712684 13.1710517,21.6575126 C13.7810986,22.2947417 14.3911456,22.9347293 14.9984197,23.5719584 C15.0843808,23.6629911 15.1731149,23.7540239 15.2590761,23.8450566 C15.4393172,24.0326392 15.7110654,24.0353977 15.9301278,23.9305722 C17.0753523,23.3871344 18.2205769,22.8436966 19.3658014,22.3002588 C19.5294049,22.223019 19.6902355,22.1457791 19.853839,22.0685392 C20.0118966,21.9940579 20.1505437,21.7678553 20.1283601,21.591307 C20.0202154,20.7085655 19.9148437,19.8230653 19.806699,18.9403238 C19.7928343,18.8161882 19.7761967,18.6892941 19.762332,18.5651586 C19.7373755,18.6589499 19.712419,18.7499826 19.6874626,18.8437739 C20.042399,18.358266 20.3973354,17.8699996 20.7522718,17.3844917 C20.5914413,17.4755245 20.4333836,17.5665572 20.2725531,17.6575899 C21.2347635,17.5720743 22.194201,17.4865587 23.1564115,17.4038017 C23.2950585,17.3927674 23.4337056,17.3789746 23.5723526,17.3679403 C23.8052796,17.3486304 24.0548443,17.2134606 24.1075302,16.9624309 C24.3654137,15.7348684 24.6232972,14.5100645 24.8784077,13.282502 C24.914456,13.1114708 24.9505042,12.9404397 24.9865524,12.7666499 C25.0336924,12.5376888 24.958823,12.2563149 24.7314419,12.1432137 C23.8967867,11.72667 23.0593586,11.3128849 22.2247034,10.8963412 C22.1082399,10.8384113 21.9890034,10.7804814 21.8725399,10.7197929 C21.6146564,10.5901402 21.25972,10.642553 21.1127541,10.9184098 C20.979653,11.1694394 21.0351118,11.5363289 21.3124059,11.6742572 C22.147061,12.0908009 22.9844892,12.504586 23.8191443,12.9211297 C23.9356079,12.9790596 24.0548443,13.0369895 24.1713078,13.097678 C24.0853467,12.8907855 24.0021584,12.6811343 23.9161973,12.4742418 C23.6583138,13.7018043 23.4004303,14.9266082 23.1453197,16.1541707 C23.1092715,16.3252019 23.0732233,16.496233 23.037175,16.6700228 C23.2146432,16.534853 23.3948844,16.3996832 23.5723526,16.2645134 C22.4742681,16.3610632 21.3734106,16.4438203 20.2780989,16.5569215 C20.0562637,16.5789901 19.9259355,16.6562299 19.7928343,16.8327783 C19.7734237,16.8576054 19.7540131,16.885191 19.7346025,16.9127767 C19.6458684,17.0341537 19.5571343,17.1555306 19.4684002,17.2769076 C19.2548838,17.5693158 19.0413673,17.8617239 18.8306238,18.154132 C18.7363439,18.2837847 18.6476098,18.3913688 18.6559286,18.5706757 C18.6587015,18.6230885 18.6697933,18.6755013 18.6753392,18.7279141 C18.7113874,19.0368736 18.7502086,19.3430746 18.7862568,19.6520341 C18.8638991,20.3002975 18.9443144,20.9485608 19.0219568,21.5968242 C19.1134638,21.4368272 19.2049709,21.2795889 19.2964779,21.119592 C18.1512533,21.6630298 17.0060288,22.2064676 15.8608042,22.7499053 C15.6972007,22.8271452 15.5363702,22.9043851 15.3727667,22.981625 C15.5973749,23.0092107 15.8219831,23.0395549 16.0438183,23.0671406 C15.6583796,22.6616312 15.2701679,22.2588803 14.8847291,21.8533709 C14.6434832,21.6023413 14.4050103,21.3513117 14.1637645,21.100282 C13.9752045,20.9044237 13.8365575,20.7223583 13.5232152,20.7168412 C12.8771199,20.7030483 12.2310247,20.7168412 11.5849295,20.7168412 C11.3852778,20.7168412 11.2050366,20.7223583 11.0414331,20.8795966 C11.0053849,20.9126994 10.9748826,20.9513194 10.9388343,20.9871808 C10.7280908,21.2078662 10.5173473,21.4285515 10.3038309,21.6519955 C9.85184154,22.1237105 9.39985219,22.5981841 8.95063578,23.0698991 C9.17524398,23.0423135 9.39985219,23.0119692 9.62168745,22.9843836 C8.4764629,22.4409458 7.33123835,21.897508 6.1860138,21.3540702 C6.02241029,21.2768303 5.86157973,21.1995905 5.69797622,21.1223506 C5.78948327,21.2823475 5.88099031,21.4395858 5.97249736,21.5995827 C6.03904794,21.0506278 6.10559852,20.4989143 6.1721491,19.9499594 C6.21374321,19.5996214 6.25811026,19.2520419 6.29970437,18.9017038 C6.32743378,18.6782599 6.3828926,18.4741259 6.24424556,18.2672333 C5.91703854,17.7789669 5.5537833,17.3100104 5.20439276,16.8382954 C5.0712916,16.6617471 4.94096338,16.5845072 4.71912812,16.5624387 C4.69694459,16.5596801 4.67753401,16.5596801 4.65535048,16.5569215 C4.55829755,16.5486458 4.46124462,16.5403701 4.3641917,16.5320944 C4.0175741,16.5017502 3.66818356,16.4714059 3.32156596,16.4410617 C2.68933545,16.3858903 2.05710495,16.3279604 1.42487445,16.2727891 C1.60234266,16.4079589 1.78258381,16.5431287 1.96005202,16.6782985 C1.70216853,15.450736 1.44428503,14.2259321 1.18917448,12.9983696 C1.15312625,12.8273384 1.11707802,12.6563072 1.08102979,12.4825175 C0.995068625,12.68941 0.911880401,12.8990612 0.825919236,13.1059537 C1.33891328,12.8494069 1.85468027,12.5956187 2.36767432,12.339072 C2.70042722,12.1735579 3.03318011,12.0080439 3.36593301,11.8425298 C3.60717886,11.7239114 3.87615412,11.6328787 3.94547764,11.3349534 C4.08967056,10.7032415 4.17563172,10.0549782 4.28932229,9.4177491 C4.32259758,9.23568365 4.35864581,9.05085963 4.25050112,8.88258702 C4.21445289,8.82741567 4.17008584,8.77500289 4.12849173,8.72259011 C3.92883999,8.46052621 3.72918825,8.19846231 3.52953652,7.93363984 C3.12191422,7.39847776 2.71706486,6.86607425 2.30944256,6.33091218 C2.28171316,6.55435614 2.25121081,6.7778001 2.2234814,6.99848549 C3.06090952,5.96402271 3.8955647,4.92955994 4.73299282,3.89509717 C4.84945634,3.75165166 4.96591985,3.60544759 5.08238336,3.46200208 C4.90214221,3.50889773 4.72190106,3.55579338 4.54165991,3.60268902 C5.03524337,3.79854731 5.52882683,3.99440559 6.02241029,4.19302244 C6.37457377,4.33370938 6.7295102,4.47439632 7.08167368,4.61508326 C7.27023365,4.68956458 7.45602069,4.77783873 7.6473536,4.84128578 C7.93851239,4.93783564 8.30454057,4.67577174 8.55687818,4.5433605 C8.87299343,4.37784646 9.19188163,4.21233242 9.50799688,4.04681837 C9.67991921,3.95578565 9.81024742,3.85923579 9.87957094,3.65234323 C9.89898153,3.59441332 9.91284623,3.5364834 9.93225682,3.47855349 C10.0237639,3.17511107 10.112498,2.87166866 10.204005,2.57098481 C10.3897921,1.94754858 10.5755791,1.32411235 10.7613661,0.703434686 C10.5838979,0.838604489 10.4036568,0.973774291 10.2261885,1.10894409 C11.5544272,1.10894409 12.8826658,1.10894409 14.2109045,1.10894409 C14.3966915,1.10894409 14.5852515,1.10894409 14.7710385,1.10894409 C14.5935703,0.973774291 14.4133292,0.838604489 14.2358609,0.703434686 C14.3939186,1.23032106 14.5492033,1.75720743 14.7072609,2.28685237 C14.8098597,2.62891473 14.9096856,2.96821852 15.0122844,3.31028088 C15.0871538,3.56131051 15.1342938,3.85096009 15.3838584,3.99440559 C15.6417419,4.14336823 15.9134901,4.27026233 16.1769195,4.4081907 C16.4209383,4.5350848 16.6621841,4.66749604 16.9089759,4.788873 C17.2167723,4.94059421 17.4275158,4.80818297 17.7075828,4.69784028 C18.0347898,4.56818761 18.3647698,4.43577638 18.6919768,4.30612371 C19.2798403,4.07164548 19.8677037,3.83716725 20.4555672,3.60544759 C20.275326,3.55855194 20.0950848,3.5116563 19.9148437,3.46476065 C20.7522718,4.49922343 21.586927,5.5336862 22.4243551,6.56814897 C22.5408186,6.71159448 22.6572821,6.85779855 22.7737457,7.00124406 C22.7460163,6.7778001 22.7155139,6.55435614 22.6877845,6.33367075 C22.2247034,6.94331414 21.7588493,7.55295754 21.2957682,8.16260093 C21.1155271,8.39707916 20.9047836,8.62879882 20.7494989,8.87982845 C20.6302624,9.07292817 20.6829483,9.28257929 20.7217695,9.48947185 C20.7605906,9.70464011 20.7994118,9.9170498 20.838233,10.1322181 C20.9103294,10.540486 20.9851988,10.948754 21.0572953,11.3542634 C21.1072082,11.6383959 21.4732364,11.8259784 21.7394387,11.7404628 C22.0389163,11.6301201 22.1720175,11.357022 22.1193316,11.050821 Z"></path>
                    <path d="M12.4970907,14.9464445 C12.3991067,14.9464445 12.3011227,14.9438106 12.2004905,14.9359091 C12.1528226,14.9332753 12.1025065,14.9280076 12.0548386,14.9227399 C11.9542063,14.9148384 12.0786725,14.9306414 12.0866172,14.9280076 C12.0627832,14.9332753 12.0204118,14.9174723 11.9965778,14.9148384 C11.803258,14.8832324 11.6099382,14.8384572 11.4245631,14.7778789 C11.3345237,14.7489067 11.2471326,14.7173007 11.1597415,14.6830608 C11.0670539,14.6461871 11.1862236,14.69623 11.1888719,14.69623 C11.1835754,14.6988639 11.1359075,14.6725255 11.1253147,14.6672578 C11.0776468,14.6461871 11.0299789,14.6224826 10.9849592,14.5987781 C10.8154734,14.5118615 10.651284,14.4144095 10.4950392,14.3037884 C10.468557,14.2853516 10.3970552,14.2511117 10.3838141,14.2221395 C10.4049998,14.2642809 10.4579642,14.2827177 10.4102963,14.2405763 C10.3917588,14.2247733 10.3732213,14.2116041 10.357332,14.1958011 C10.2831819,14.1325891 10.2090318,14.069377 10.13753,14.0008973 C10.0713246,13.9376852 10.0077674,13.8718393 9.94421022,13.8033595 C9.91243163,13.7691197 9.88330125,13.7348798 9.85417087,13.7006399 C9.83828157,13.6822031 9.82504049,13.6664 9.8091512,13.6479632 C9.75089044,13.5768496 9.78531725,13.6453294 9.81709584,13.6611324 C9.7614833,13.6374278 9.68998147,13.4872992 9.65820287,13.4372563 C9.60523855,13.3556074 9.55227422,13.2713246 9.50460633,13.184408 C9.45958665,13.1027591 9.41721519,13.0211102 9.37749195,12.9368274 C9.36689908,12.9157567 9.35895444,12.894686 9.34836157,12.8736153 C9.31658298,12.8104033 9.3854366,12.9684334 9.36160265,12.9025875 C9.34306514,12.8525447 9.32187941,12.8051356 9.3033419,12.7550927 C9.23713649,12.573358 9.18417216,12.3837218 9.14444892,12.1940856 C9.13385606,12.1466765 9.12591141,12.0992675 9.11796676,12.0518584 C9.11531854,12.0281539 9.11002211,12.0044494 9.10737389,11.9807449 C9.09678103,11.9069974 9.11796676,12.0860983 9.11267033,12.0123509 C9.10207746,11.9096313 9.0914846,11.8069117 9.08883638,11.7041921 C9.08089173,11.5013867 9.09413281,11.3012151 9.11267033,11.0984097 C9.12061498,11.0246623 9.09678103,11.2037632 9.10737389,11.1300158 C9.11002211,11.1063112 9.11531854,11.0826067 9.11796676,11.0589022 C9.12591141,11.0114931 9.13385606,10.9640841 9.14444892,10.916675 C9.16563465,10.8192231 9.18682038,10.7191373 9.21595076,10.6243192 C9.24243292,10.5347688 9.2715633,10.4452183 9.3033419,10.3556679 C9.31923119,10.3108927 9.33776871,10.2687513 9.353658,10.2239761 C9.38014017,10.1554963 9.33512049,10.2292438 9.34041692,10.2529483 C9.33512049,10.2371453 9.3695473,10.1871024 9.37749195,10.1739332 C9.45693844,10.0001 9.55227422,9.83416832 9.65555465,9.67350431 C9.68998147,9.62346142 9.75883509,9.47069892 9.81444763,9.44962823 C9.8091512,9.45226207 9.73500114,9.54971401 9.79591011,9.4759666 C9.81179941,9.45752974 9.82504049,9.43909289 9.84092979,9.42328987 C9.8753566,9.38378233 9.9071352,9.34427478 9.94156201,9.30740108 C10.0686764,9.16780776 10.2063836,9.03611594 10.3520355,8.91495948 C10.370573,8.89915646 10.3891106,8.88598728 10.4049998,8.87018426 C10.4526677,8.83067672 10.3997034,8.84647973 10.3785177,8.88862111 C10.3917588,8.85964892 10.4632606,8.82540904 10.4897428,8.80697219 C10.5691893,8.75166163 10.651284,8.69635107 10.7360269,8.64630818 C10.8154734,8.59889913 10.8975681,8.55412391 10.9796628,8.51198253 C11.0167378,8.49354568 11.0538128,8.47510883 11.0882396,8.45930581 C11.1094254,8.44877046 11.1306111,8.44086895 11.1517968,8.43033361 C11.2630219,8.37765688 11.0405717,8.47247499 11.154445,8.42769977 C11.337172,8.35658619 11.5198989,8.29600796 11.7105705,8.25123275 C11.803258,8.23016206 11.8985938,8.20909137 11.9912814,8.19592218 C12.0098189,8.19328835 12.0257082,8.19065451 12.0442457,8.18802068 C12.1395815,8.17221766 12.02306,8.19328835 12.0124671,8.19328835 C12.0707279,8.19592218 12.134285,8.18011917 12.195194,8.17485149 C12.3991067,8.15904848 12.6030193,8.16168231 12.8042838,8.17748533 C12.8519516,8.18011917 12.9022678,8.18802068 12.9499356,8.19065451 C13.0240857,8.19855602 12.844007,8.17485149 12.9181571,8.18538684 C12.9366946,8.18802068 12.9552321,8.19065451 12.9711214,8.19328835 C13.07705,8.20909137 13.1829787,8.23016206 13.2889073,8.25650042 C13.4795789,8.30390947 13.6623058,8.36712154 13.8423845,8.43560128 C13.9085899,8.46193964 13.749697,8.3934599 13.8132541,8.4224321 C13.8344399,8.43296745 13.8556256,8.44086895 13.8768113,8.4514043 C13.9138864,8.46720732 13.9509614,8.48564417 13.9880364,8.50408102 C14.080724,8.55149008 14.1734115,8.60153296 14.2634509,8.65420969 C14.3428974,8.70161874 14.4196957,8.75166163 14.4964939,8.80433835 C14.5203279,8.82014137 14.5971261,8.85964892 14.607719,8.88598728 C14.6050708,8.88071961 14.5070868,8.80697219 14.5812368,8.86755042 C14.6024226,8.88598728 14.6262565,8.90442413 14.6474423,8.92286099 C14.7930941,9.04401745 14.9308014,9.17570926 15.0552676,9.31793642 C15.0870461,9.35217629 15.1161765,9.38641616 15.1453069,9.42328987 C15.1611962,9.44172672 15.1744373,9.46016358 15.1903266,9.4759666 C15.2300498,9.52337565 15.2141605,9.47333276 15.1717891,9.44962823 C15.2009194,9.46279741 15.2353463,9.53391099 15.2538838,9.56024935 C15.2830142,9.60239073 15.3121445,9.64453211 15.3412749,9.68930733 C15.4445553,9.84997134 15.5372429,10.015903 15.6166894,10.1897362 C15.6219858,10.2002716 15.648468,10.2476806 15.6458198,10.2529483 C15.6458198,10.2503144 15.5955037,10.1317918 15.6325787,10.2239761 C15.648468,10.2687513 15.6670055,10.3108927 15.6828948,10.3556679 C15.7146734,10.4425845 15.7438038,10.5321349 15.7702859,10.6243192 C15.7967681,10.7165035 15.8179538,10.8086877 15.8391396,10.900872 C15.8497324,10.9482811 15.8576771,10.9956901 15.8656217,11.0404653 C15.8709182,11.0641698 15.8735664,11.0878744 15.8762146,11.1115789 C15.8974003,11.2353692 15.8656217,10.9877886 15.8762146,11.1142127 C15.8947521,11.3091166 15.905345,11.5040205 15.8974003,11.7015582 C15.8947521,11.7990102 15.8841592,11.8964621 15.8762146,11.993914 C15.8682699,12.0887321 15.8788628,11.9754772 15.881511,11.962308 C15.8762146,11.9860125 15.8735664,12.0097171 15.8709182,12.0334216 C15.8603253,12.091366 15.8497324,12.1519442 15.8391396,12.2098886 C15.8020645,12.3942571 15.7491002,12.5759918 15.685543,12.7524589 C15.6696537,12.7972341 15.6511162,12.8393755 15.6352269,12.8841507 C15.5981519,12.976335 15.648468,12.8578123 15.648468,12.8551785 C15.6511162,12.8604462 15.624634,12.9078552 15.6193376,12.9183906 C15.5769662,13.0132087 15.5292983,13.1053929 15.4763339,13.1975772 C15.4339625,13.2739584 15.3889428,13.3477059 15.3412749,13.4188194 C15.3147927,13.458327 15.2909588,13.4952007 15.2644766,13.5320744 C15.2432909,13.5610466 15.2035677,13.6426955 15.1717891,13.6584985 C15.2141605,13.6374278 15.2300498,13.5847511 15.1903266,13.6321602 C15.1744373,13.650597 15.1611962,13.6690339 15.1453069,13.6848369 C15.1161765,13.7190768 15.0870461,13.7559505 15.0552676,13.7901904 C14.9864139,13.8665716 14.9149121,13.940319 14.8381138,14.0114326 C14.7745566,14.0720108 14.7109994,14.1273214 14.644794,14.182632 C14.631553,14.1931673 14.5123832,14.2932531 14.5759404,14.2379425 C14.6342012,14.1878996 14.5759404,14.2379425 14.5600511,14.2484779 C14.5362172,14.2642809 14.5123832,14.2827177 14.4911975,14.2985207 C14.3296563,14.4117757 14.1601705,14.5118615 13.9853882,14.6014119 C13.9483132,14.6198488 13.9112381,14.6382856 13.8741631,14.6540886 C13.8529774,14.664624 13.8317917,14.6725255 13.8106059,14.6830608 C13.7470487,14.7146669 13.9059417,14.6461871 13.8397363,14.6698917 C13.7470487,14.7041315 13.6543612,14.7410052 13.5590254,14.7726113 C13.3657056,14.8331895 13.1697376,14.8805986 12.9684732,14.9122046 C12.9499356,14.9148384 12.9313981,14.9174723 12.9155088,14.9201061 C12.8413588,14.9306414 13.0214375,14.9095708 12.9472874,14.9148384 C12.8996195,14.9201061 12.8493034,14.9253738 12.8016355,14.9280076 C12.7062998,14.9411768 12.6030193,14.9438106 12.4970907,14.9464445 C12.219028,14.9464445 11.9542063,15.1887574 11.9674474,15.4732117 C11.9806885,15.757666 12.2004905,16.0026128 12.4970907,16 C13.4054288,15.9947113 14.3217117,15.7234261 15.0632122,15.1913912 C15.8179538,14.6514548 16.3846721,13.9192483 16.7051063,13.0500824 C17.3380299,11.3407227 16.7819045,9.3021334 15.3624606,8.14851313 C14.6289047,7.55326614 13.7576416,7.19769825 12.8122284,7.12395084 C11.9065385,7.05283726 10.9690699,7.27934717 10.1931425,7.74817002 C9.44369736,8.20118986 8.81342189,8.88071961 8.45061627,9.67613815 C8.05073562,10.5532056 7.93686232,11.5092882 8.12223746,12.4522015 C8.46915378,14.2089703 9.97069239,15.6602141 11.7529419,15.9314992 C11.999226,15.9683729 12.2481583,15.9947113 12.4970907,15.9947113 C12.7751534,15.9947113 13.039975,15.7523983 13.0267339,15.467944 C13.0134928,15.1861236 12.7936909,14.9464445 12.4970907,14.9464445 Z"></path>
                </g>
            </g>
        </g>
    </symbol>
    <symbol id="call" viewBox="0 0 22 22" xmlns="http://www.w3.org/2000/svg">
        <title>Call</title>
        <g stroke="inherit" stroke-width="1" fill="inherit" fill-rule="evenodd">
            <g transform="translate(-1250, -29)" fill="inherit">
                <path d="M1271.35294,43.7205882 L1270.62759,43.7205882 C1270.04329,43.7205882 1269.52565,43.3317059 1269.37812,42.7661765 C1269.07594,41.606 1268.76471,39.9042353 1268.76471,37.8161765 C1268.76471,34.8319412 1267.68994,31.3585294 1263.01429,30.5024706 C1262.70176,30.4448824 1262.46753,30.1828235 1262.46753,29.8651176 L1262.46753,29.6470588 C1262.46753,29.2898824 1262.17829,29 1261.82112,29 L1260.52635,29 C1260.16918,29 1259.87994,29.2898824 1259.87994,29.6470588 L1259.87994,29.8696471 C1259.87994,30.1821765 1259.65024,30.441 1259.34224,30.4966471 C1254.63876,31.3423529 1253.55882,34.8248235 1253.55882,37.8161765 C1253.55882,39.89 1253.245,41.5982353 1252.94153,42.7655294 C1252.794,43.3310588 1252.27635,43.7205882 1251.69206,43.7205882 L1250.64706,43.7205882 C1250.28988,43.7205882 1250,44.0104706 1250,44.3676471 L1250,45.6617647 C1250,46.0189412 1250.28988,46.3088235 1250.64706,46.3088235 L1255.64882,46.3088235 C1255.95553,46.3088235 1256.22471,46.5236471 1256.27971,46.8251765 C1256.71518,49.2018235 1258.66541,51 1261,51 C1263.33459,51 1265.28482,49.2018235 1265.72029,46.8251765 C1265.77529,46.5236471 1266.04447,46.3088235 1266.35118,46.3088235 L1271.35294,46.3088235 C1271.71012,46.3088235 1272,46.0189412 1272,45.6617647 L1272,44.3676471 C1272,44.0104706 1271.71012,43.7205882 1271.35294,43.7205882 L1271.35294,43.7205882 Z M1256.08362,37.6673241 C1256.08362,34.3063774 1257.56422,32.7922419 1260.99991,32.6666667 C1264.4356,32.7922419 1265.9162,34.3063774 1265.9162,37.6673241 C1265.9162,39.7626561 1266.18326,41.5312295 1266.48268,42.8579882 C1266.57656,43.2721893 1266.27715,43.6666667 1265.86608,43.6666667 L1256.13374,43.6666667 C1255.72267,43.6666667 1255.42389,43.2721893 1255.51714,42.8579882 C1255.81656,41.5312295 1256.08362,39.7626561 1256.08362,37.6673241 L1256.08362,37.6673241 Z M1259.16667,46.4166667 L1263.75,46.4166667 C1263.54408,47.4591282 1262.59669,48.25 1261.45833,48.25 C1260.31998,48.25 1259.37259,47.4591282 1259.16667,46.4166667 Z"></path>
            </g>
        </g>
    </symbol>
    <symbol id="grid" viewBox="0 0 20 20" xmlns="http://www.w3.org/2000/svg">
        <title>Grid</title>
        <g stroke="none" stroke-width="1" fill="inherit" fill-rule="evenodd">
            <g transform="translate(-30, -200)" fill="inherit">
                <path d="M34.1176471,205 L30.5882353,205 C30.2635294,205 30,204.72 30,204.375 L30,200.625 C30,200.28 30.2635294,200 30.5882353,200 L34.1176471,200 C34.4423529,200 34.7058824,200.28 34.7058824,200.625 L34.7058824,204.375 C34.7058824,204.72 34.4423529,205 34.1176471,205 M41.7647059,205 L38.2352941,205 C37.9105882,205 37.6470588,204.72 37.6470588,204.375 L37.6470588,200.625 C37.6470588,200.28 37.9105882,200 38.2352941,200 L41.7647059,200 C42.0894118,200 42.3529412,200.28 42.3529412,200.625 L42.3529412,204.375 C42.3529412,204.72 42.0894118,205 41.7647059,205 M49.4117647,205 L45.8823529,205 C45.5576471,205 45.2941176,204.72 45.2941176,204.375 L45.2941176,200.625 C45.2941176,200.28 45.5576471,200 45.8823529,200 L49.4117647,200 C49.7364706,200 50,200.28 50,200.625 L50,204.375 C50,204.72 49.7364706,205 49.4117647,205 M34.1176471,212.5 L30.5882353,212.5 C30.2635294,212.5 30,212.22 30,211.875 L30,208.125 C30,207.78 30.2635294,207.5 30.5882353,207.5 L34.1176471,207.5 C34.4423529,207.5 34.7058824,207.78 34.7058824,208.125 L34.7058824,211.875 C34.7058824,212.22 34.4423529,212.5 34.1176471,212.5 M41.7647059,212.5 L38.2352941,212.5 C37.9105882,212.5 37.6470588,212.22 37.6470588,211.875 L37.6470588,208.125 C37.6470588,207.78 37.9105882,207.5 38.2352941,207.5 L41.7647059,207.5 C42.0894118,207.5 42.3529412,207.78 42.3529412,208.125 L42.3529412,211.875 C42.3529412,212.22 42.0894118,212.5 41.7647059,212.5 M49.4117647,212.5 L45.8823529,212.5 C45.5576471,212.5 45.2941176,212.22 45.2941176,211.875 L45.2941176,208.125 C45.2941176,207.78 45.5576471,207.5 45.8823529,207.5 L49.4117647,207.5 C49.7364706,207.5 50,207.78 50,208.125 L50,211.875 C50,212.22 49.7364706,212.5 49.4117647,212.5 M34.1176471,220 L30.5882353,220 C30.2635294,220 30,219.72 30,219.375 L30,215.625 C30,215.28 30.2635294,215 30.5882353,215 L34.1176471,215 C34.4423529,215 34.7058824,215.28 34.7058824,215.625 L34.7058824,219.375 C34.7058824,219.72 34.4423529,220 34.1176471,220 M41.7647059,220 L38.2352941,220 C37.9105882,220 37.6470588,219.72 37.6470588,219.375 L37.6470588,215.625 C37.6470588,215.28 37.9105882,215 38.2352941,215 L41.7647059,215 C42.0894118,215 42.3529412,215.28 42.3529412,215.625 L42.3529412,219.375 C42.3529412,219.72 42.0894118,220 41.7647059,220 M49.4117647,220 L45.8823529,220 C45.5576471,220 45.2941176,219.72 45.2941176,219.375 L45.2941176,215.625 C45.2941176,215.28 45.5576471,215 45.8823529,215 L49.4117647,215 C49.7364706,215 50,215.28 50,215.625 L50,219.375 C50,219.72 49.7364706,220 49.4117647,220"></path>
            </g>
        </g>
    </symbol>
    <symbol id="plus" viewBox="0 0 20 20" xmlns="http://www.w3.org/2000/svg">
        <title>Plus</title>
        <g stroke="inherit" stroke-width="1" fill="inherit" fill-rule="evenodd">
            <g transform="translate(-30, -160)" fill="inherit">
                <path d="M41.7142857,169.142857 C41.3988571,169.142857 41.1428571,168.886857 41.1428571,168.571429 L41.1428571,160.571429 C41.1428571,160.256 40.8868571,160 40.5714286,160 L39.4285714,160 C39.1131429,160 38.8571429,160.256 38.8571429,160.571429 L38.8571429,168.571429 C38.8571429,168.886857 38.6011429,169.142857 38.2857143,169.142857 L30.5714286,169.142857 C30.256,169.142857 30,169.398857 30,169.714286 L30,170.857143 C30,171.172571 30.256,171.428571 30.5714286,171.428571 L38.2857143,171.428571 C38.6011429,171.428571 38.8571429,171.684571 38.8571429,172 L38.8571429,179.428571 C38.8571429,179.744 39.1131429,180 39.4285714,180 L40.5714286,180 C40.8868571,180 41.1428571,179.744 41.1428571,179.428571 L41.1428571,172 C41.1428571,171.684571 41.3988571,171.428571 41.7142857,171.428571 L49.4285714,171.428571 C49.744,171.428571 50,171.172571 50,170.857143 L50,169.714286 C50,169.398857 49.744,169.142857 49.4285714,169.142857 L41.7142857,169.142857 Z"></path>
            </g>
        </g>
    </symbol>
    <symbol id="search" viewBox="0 0 20 20" xmlns="http://www.w3.org/2000/svg">
        <title>Search</title>
        <g stroke="inherit" stroke-width="1" fill="inherit" fill-rule="evenodd">
            <g transform="translate(-30, -120)" fill="inherit">
                <path d="M49.8336433,138.215805 L44.6588204,133.002719 C44.464536,132.807293 44.4451075,132.506153 44.5953922,132.275299 C46.7170925,129.021049 46.2222386,124.54567 43.0919736,121.872556 C40.0799935,119.301156 35.4954523,119.389155 32.5771859,122.067983 C29.2274938,125.142806 29.1429229,130.376463 32.3246162,133.560428 C35.0377411,136.275826 39.2371419,136.605537 42.3211215,134.565559 C42.5525486,134.412418 42.8559751,134.432418 43.0514024,134.628987 L48.2147969,139.831216 C48.438224,140.055784 48.8005073,140.056356 49.0245058,139.832358 L49.8325005,139.023796 C50.0553562,138.800941 50.0559276,138.439802 49.8336433,138.215805 L49.8336433,138.215805 Z M33.9406055,131.942731 C31.7326201,129.733041 31.7326201,126.137652 33.9406055,123.927962 C36.1485909,121.718272 39.7411386,121.717701 41.949124,123.927962 C44.1571094,126.137652 44.1571094,129.733041 41.949124,131.942731 C39.7411386,134.152421 36.1485909,134.152421 33.9406055,131.942731 L33.9406055,131.942731 Z"></path>
            </g>
        </g>
    </symbol>
    <symbol id="ask" viewBox="0 0 24 24" xmlns="http://www.w3.org/2000/svg">
        <title>Ask</title>
        <g stroke="inherit" stroke-width="1" fill="inherit" fill-rule="evenodd">
            <g transform="translate(-28, -968)" fill="inherit" fill-rule="nonzero">
                <path d="M40,970 C45.514,970 50,974.486 50,980 C50,985.514 45.514,990 40,990 C34.486,990 30,985.514 30,980 C30,974.486 34.486,970 40,970 Z M40,968 C33.373,968 28,973.373 28,980 C28,986.627 33.373,992 40,992 C46.627,992 52,986.627 52,980 C52,973.373 46.627,968 40,968 Z M41.25,985 C41.25,985.69 40.691,986.25 40,986.25 C39.311,986.25 38.75,985.69 38.75,985 C38.75,984.31 39.311,983.75 40,983.75 C40.691,983.75 41.25,984.31 41.25,985 Z M42.643,975.002 C42.035,974.386 41.128,974.047 40.092,974.047 C37.912,974.047 36.502,975.597 36.502,977.997 L38.513,977.997 C38.513,976.511 39.342,975.984 40.051,975.984 C40.685,975.984 41.358,976.405 41.415,977.21 C41.477,978.057 41.025,978.487 40.453,979.031 C39.041,980.374 39.015,981.024 39.021,982.499 L41.026,982.499 C41.013,981.835 41.056,981.296 41.961,980.321 C42.638,979.591 43.48,978.683 43.497,977.299 C43.508,976.375 43.213,975.58 42.643,975.002 L42.643,975.002 Z"></path>
            </g>
        </g>
    </symbol>
    <symbol id="arrow-down" viewBox="0 0 10 5" xmlns="http://www.w3.org/2000/svg">
        <title>Arrow</title>
        <g stroke="v" stroke-width="1" fill="inherit" fill-rule="evenodd">
            <g transform="translate(-1406, -38)" fill="inherit">
                <path d="M1412.34673,44.9229706 L1409.12269,40.8719118 C1408.9591,40.6665 1408.9591,40.3335 1409.12269,40.1280882 L1412.34673,36.0770294 C1412.42841,35.9743235 1412.56105,35.9743235 1412.64273,36.0770294 L1412.93874,36.4489412 C1413.02042,36.5516471 1413.02042,36.7181471 1412.93874,36.8208529 L1410.15849,40.3139118 C1410.0768,40.4166176 1410.0768,40.5833824 1410.15849,40.6858235 L1412.93874,44.1791471 C1413.02042,44.2818529 1413.02042,44.4483529 1412.93874,44.5510588 L1412.64273,44.9229706 C1412.56105,45.0256765 1412.42841,45.0256765 1412.34673,44.9229706"
                      transform="translate(1411, 40.5) rotate(-90) translate(-1411, -40.5)"></path>
            </g>
        </g>
    </symbol>
    <symbol id="basket" viewBox="0 0 14 15" fill="inherit" xmlns="http://www.w3.org/2000/svg">
        <path opacity="0.495745" fill-rule="evenodd" clip-rule="evenodd"
              d="M8.33 12.6923C8.63849 12.6923 8.89212 12.4274 8.89944 12.1136L9.065 4.99648C9.07233 4.67786 8.82342 4.40967 8.50874 4.40225C8.18919 4.39747 7.93312 4.64489 7.92579 4.96335L7.76023 12.0874C7.75274 12.4058 8.00165 12.6923 8.31633 12.6923H8.33ZM5.64509 12.6923H5.65877C5.97344 12.6923 6.22235 12.3859 6.21502 12.0673L6.04947 4.94077C6.04198 4.62214 5.78395 4.36187 5.46635 4.36896C5.15184 4.37637 4.90277 4.63632 4.91026 4.95495L5.07581 12.0966C5.08314 12.4104 5.3366 12.6923 5.64509 12.6923ZM5.37209 1.97802H8.62791V1.15385H5.37209V1.97802ZM14 2.63736C14 3.00148 13.7084 3.2967 13.3488 3.2967H0.651163C0.291558 3.2967 0 3.00148 0 2.63736C0 2.27324 0.291558 1.97802 0.651163 1.97802H4.23256V0.494505C4.23256 0.175879 4.4424 0 4.75707 0H9.24277C9.55744 0 9.76744 0.175879 9.76744 0.494505V1.97802H13.3488C13.7084 1.97802 14 2.27324 14 2.63736ZM12.2739 4.84418L11.7769 14.3754C11.7587 14.7255 11.473 15 11.1267 15H2.87326C2.527 15 2.2413 14.7255 2.22307 14.3754L1.72623 4.84418C1.70719 4.48055 1.98295 4.17017 2.34207 4.15104C2.70298 4.13341 3.00788 4.41115 3.02677 4.77462L3.49105 13.6813H10.509L10.9732 4.77462C10.9923 4.41099 11.3009 4.13456 11.6579 4.15104C12.017 4.17017 12.2928 4.48055 12.2739 4.84418Z"
              fill="inherit"/>
    </symbol>
    <symbol id="btn-menu" viewBox="0 0 16 10" fill="inherit" xmlns="http://www.w3.org/2000/svg">
        <path fill-rule="evenodd" clip-rule="evenodd" d="M0 0H16V2H0V0Z" fill="white"/>
        <path fill-rule="evenodd" clip-rule="evenodd" d="M0 8H16V10H0V8Z" fill="white"/>
        <path fill-rule="evenodd" clip-rule="evenodd" d="M0 4H16V6H0V4Z" fill="white"/>
    </symbol>
    <symbol id="check" viewBox="0 0 20 20" fill="inherit" xmlns="http://www.w3.org/2000/svg">
        <path fill-rule="evenodd" clip-rule="evenodd"
              d="M0 10C0 4.46939 4.46939 0 10 0C15.5306 0 20 4.46939 20 10C20 15.5306 15.5306 20 10 20C4.46939 20 0 15.5306 0 10ZM1.66122 10C1.66122 14.5959 5.40408 18.3388 10 18.3388C14.5959 18.3388 18.3388 14.5959 18.3388 10C18.3388 5.40408 14.5959 1.66122 10 1.66122C5.40408 1.66122 1.66122 5.40408 1.66122 10Z"
              fill="inherit"/>
        <path fill-rule="evenodd" clip-rule="evenodd"
              d="M13.8084 5.96938C14.1598 6.18875 14.2668 6.65141 14.0474 7.00277L11.3543 11.3162C11.2479 11.4866 11.0776 11.6072 10.8815 11.651C10.6854 11.6948 10.48 11.658 10.3112 11.549L8.62634 10.4606C8.2784 10.2359 8.17855 9.77162 8.4033 9.42369C8.62806 9.07576 9.09231 8.9759 9.44025 9.20066L10.4853 9.87575L12.775 6.20837C12.9944 5.85702 13.457 5.75002 13.8084 5.96938Z"
              fill="inherit"/>
        <path fill-rule="evenodd" clip-rule="evenodd"
              d="M5.83325 7.49967C5.83325 6.5792 6.57944 5.83301 7.49992 5.83301H9.99992C10.4602 5.83301 10.8333 6.2061 10.8333 6.66634C10.8333 7.12658 10.4602 7.49967 9.99992 7.49967H7.49992V12.4997H12.4999V11.6663C12.4999 11.2061 12.873 10.833 13.3333 10.833C13.7935 10.833 14.1666 11.2061 14.1666 11.6663V12.4997C14.1666 13.4201 13.4204 14.1663 12.4999 14.1663H7.49992C6.57944 14.1663 5.83325 13.4201 5.83325 12.4997V7.49967Z"
              fill="inherit"/>
    </symbol>
    <symbol id="edit" viewBox="0 0 14 15" fill="inherit" xmlns="http://www.w3.org/2000/svg">
        <g opacity="0.5">
            <path fill-rule="evenodd" clip-rule="evenodd"
                  d="M0.0254322 13.5583L1.07109 8.64522C1.07109 8.52226 1.13139 8.43124 1.22058 8.34044L8.72695 0.680677C9.30169 0.00937209 10.8616 -0.436206 11.9558 0.680677L13.332 2.08492C14.2226 2.9935 14.2226 4.47093 13.332 5.37971L5.82563 13.0393C5.76513 13.101 5.67614 13.1625 5.55533 13.1918L0.7122 14.3203C0.421998 14.3645 -0.124063 14.1768 0.0254322 13.5583ZM12.496 4.52669C12.9441 4.06946 12.9441 3.3659 12.496 2.90867L11.1199 1.50442C10.6834 1.05885 9.97089 1.05885 9.53422 1.50442L2.68563 8.49267H3.46402C3.79159 8.49267 4.06159 8.76849 4.06159 9.10245V10.108H5.04705C5.37462 10.108 5.64452 10.3835 5.64452 10.7178V11.4828L12.496 4.52669ZM4.4524 12.1862V11.3305H3.46695C2.94978 11.3803 2.86937 10.8467 2.86937 10.7208V9.71222H2.03079L1.34109 12.9163L4.4524 12.1862Z"
                  fill="inherit"/>
        </g>
    </symbol>
    <symbol id="finish" viewBox="0 0 20 20" fill="inherit" xmlns="http://www.w3.org/2000/svg">
        <path fill-rule="evenodd" clip-rule="evenodd"
              d="M0 10C0 15.5306 4.46939 20 10 20C15.5306 20 20 15.5306 20 10C20 4.46939 15.5306 0 10 0C4.46939 0 0 4.46939 0 10ZM1.66122 10C1.66122 5.40408 5.40408 1.66122 10 1.66122C14.5959 1.66122 18.3388 5.40408 18.3388 10C18.3388 14.5959 14.5959 18.3388 10 18.3388C5.40408 18.3388 1.66122 14.5959 1.66122 10Z"
              fill="inherit"/>
        <path d="M8.04087 13.4041L5.95924 10.298C5.70209 9.91429 5.78781 9.40409 6.17148 9.15103C6.55515 8.89797 7.06536 8.9796 7.31842 9.36327L8.84903 11.6204L12.7552 7.71429C13.0858 7.38368 13.6286 7.37144 13.9592 7.70613C14.298 8.04491 14.2939 8.55511 13.9552 8.89388L9.31842 13.4898C9.18373 13.6572 8.53066 14.0123 8.04087 13.4041Z"
              fill="inherit"/>
        <defs>
            <radialGradient id="paint0_angular_1_146" cx="0" cy="0" r="1" gradientUnits="userSpaceOnUse"
                            gradientTransform="translate(10 10) scale(10)">
                <stop offset="0.518516" stop-color="white" stop-opacity="0.01"/>
                <stop offset="0.726087" stop-color="white" stop-opacity="0.01"/>
                <stop offset="0.517582" stop-color="#5C81C2"/>
                <stop offset="0.734533" stop-color="#5C81C2"/>
            </radialGradient>
        </defs>
    </symbol>
    <symbol id="pin" viewBox="0 0 20 20" fill="inherit" xmlns="http://www.w3.org/2000/svg">
        <path fill-rule="evenodd" clip-rule="evenodd"
              d="M0 10C0 4.46939 4.46939 0 10 0C15.5306 0 20 4.46939 20 10C20 15.5306 15.5306 20 10 20C4.46939 20 0 15.5306 0 10ZM1.66122 10C1.66122 14.5959 5.40408 18.3388 10 18.3388C14.5959 18.3388 18.3388 14.5959 18.3388 10C18.3388 5.40408 14.5959 1.66122 10 1.66122C5.40408 1.66122 1.66122 5.40408 1.66122 10Z"
              fill="inherit"/>
        <path fill-rule="evenodd" clip-rule="evenodd"
              d="M11.7601 11.299L13.8831 13.4089C14.0183 13.5458 14.0183 13.7478 13.8831 13.8815C13.7479 14.0167 13.5442 14.0167 13.409 13.8815L11.2941 11.7633L9.29817 13.7641C9.2053 13.8912 8.95275 13.8977 8.82403 13.7641C8.1446 13.0554 7.9279 12.0517 8.2831 11.154L6.10143 8.9674C5.96619 8.83217 5.96619 8.6285 6.10143 8.49327L8.50306 6.10304C8.63829 5.96781 8.84196 5.96781 8.97719 6.10304L11.1426 8.27494C11.4293 8.156 11.734 8.10549 12.0387 8.10549C12.6823 8.10549 13.29 8.35966 13.7642 8.8175C13.8994 8.95274 13.8994 9.1564 13.7642 9.29164L11.7601 11.299ZM8.97719 11.2403C8.6725 11.8334 8.72301 12.5112 9.07821 13.0538L13.0196 9.10264C12.7328 8.89897 12.3939 8.79795 12.0224 8.79795C11.7356 8.79795 11.4652 8.86638 11.211 9.00162C11.0758 9.06842 10.9226 9.0342 10.8216 8.93319L8.74094 6.81506L6.81181 8.74907L8.90876 10.8509C9.01141 10.9519 9.0277 11.1051 8.97719 11.2403Z"
              fill="inherit"/>
        <path d="M13.8831 13.4089L14.1499 13.1454L14.1474 13.143L13.8831 13.4089ZM11.7601 11.299L11.4947 11.034L11.2291 11.3L11.4957 11.5649L11.7601 11.299ZM13.8831 13.8815L13.6195 13.6147L13.6179 13.6163L13.8831 13.8815ZM13.409 13.8815L13.1436 14.1464L13.1438 14.1466L13.409 13.8815ZM11.2941 11.7633L11.5595 11.4984L11.294 11.2325L11.0286 11.4985L11.2941 11.7633ZM9.29817 13.7641L9.03268 13.4993L9.01237 13.5197L8.9954 13.5429L9.29817 13.7641ZM8.82403 13.7641L8.55332 14.0236L8.55397 14.0243L8.82403 13.7641ZM8.2831 11.154L8.6318 11.2919L8.72228 11.0632L8.54856 10.8891L8.2831 11.154ZM6.10143 8.9674L6.36689 8.70253L6.36659 8.70224L6.10143 8.9674ZM6.10143 8.49327L5.83689 8.22747L5.83626 8.2281L6.10143 8.49327ZM8.50306 6.10304L8.76759 6.36884L8.76822 6.36821L8.50306 6.10304ZM8.97719 6.10304L9.24275 5.83828L9.24235 5.83788L8.97719 6.10304ZM11.1426 8.27494L10.877 8.5397L11.0543 8.71753L11.2862 8.62132L11.1426 8.27494ZM13.7642 8.8175L14.0294 8.5523L14.0246 8.54774L13.7642 8.8175ZM13.7642 9.29164L13.499 9.02647L13.4988 9.02669L13.7642 9.29164ZM9.07821 13.0538L8.76446 13.2592L9.01747 13.6456L9.3437 13.3186L9.07821 13.0538ZM8.97719 11.2403L9.31075 11.4117L9.32079 11.3921L9.32849 11.3715L8.97719 11.2403ZM13.0196 9.10264L13.285 9.36747L13.5981 9.05361L13.2367 8.7969L13.0196 9.10264ZM11.211 9.00162L11.3772 9.33799L11.3871 9.33268L11.211 9.00162ZM10.8216 8.93319L10.5541 9.19598L10.5564 9.19835L10.8216 8.93319ZM8.74094 6.81506L9.00846 6.55227L8.74298 6.28201L8.47544 6.55023L8.74094 6.81506ZM6.81181 8.74907L6.54631 8.48424L6.28213 8.7491L6.54634 9.01393L6.81181 8.74907ZM8.90876 10.8509L8.64327 11.1158L8.64572 11.1182L8.90876 10.8509ZM14.1474 13.143L12.0244 11.033L11.4957 11.5649L13.6187 13.6749L14.1474 13.143ZM14.1466 14.1482C14.4322 13.8661 14.4276 13.4265 14.1498 13.1454L13.6163 13.6725C13.6175 13.6737 13.6156 13.6721 13.6134 13.6669C13.6112 13.6617 13.6095 13.6547 13.6095 13.6464C13.6095 13.6382 13.6112 13.6304 13.6139 13.6241C13.6152 13.6211 13.6166 13.6187 13.6177 13.617C13.6189 13.6154 13.6196 13.6146 13.6195 13.6147L14.1466 14.1482ZM13.1438 14.1466C13.4255 14.4283 13.8666 14.4283 14.1483 14.1466L13.6179 13.6163C13.6177 13.6166 13.62 13.6142 13.6257 13.6118C13.6312 13.6095 13.6383 13.6079 13.646 13.6079C13.6538 13.6079 13.6608 13.6095 13.6664 13.6118C13.672 13.6142 13.6744 13.6166 13.6741 13.6163L13.1438 14.1466ZM11.0287 12.0283L13.1436 14.1464L13.6743 13.6165L11.5595 11.4984L11.0287 12.0283ZM9.56366 14.029L11.5596 12.0282L11.0286 11.4985L9.03268 13.4993L9.56366 14.029ZM8.55397 14.0243C8.70394 14.18 8.9063 14.2384 9.0779 14.2369C9.24277 14.2354 9.46197 14.1756 9.60094 13.9854L8.9954 13.5429C9.01942 13.51 9.04545 13.496 9.05687 13.4912C9.06825 13.4864 9.07318 13.4869 9.07118 13.4869C9.06958 13.4869 9.06896 13.4865 9.07089 13.4872C9.07308 13.488 9.08261 13.492 9.09409 13.504L8.55397 14.0243ZM7.9344 11.016C7.52247 12.0572 7.77778 13.2146 8.55333 14.0236L9.09474 13.5046C8.51142 12.8961 8.33333 12.0463 8.6318 11.2919L7.9344 11.016ZM5.83596 9.23227L8.01763 11.4188L8.54856 10.8891L6.36689 8.70253L5.83596 9.23227ZM5.83626 8.2281C5.55458 8.50978 5.55458 8.95089 5.83626 9.23257L6.36659 8.70224C6.36631 8.70196 6.36869 8.70434 6.37107 8.71C6.3734 8.71555 6.375 8.72257 6.375 8.73033C6.375 8.7381 6.3734 8.74512 6.37107 8.75067C6.36869 8.75632 6.36631 8.75871 6.36659 8.75843L5.83626 8.2281ZM8.23852 5.83725L5.83689 8.22747L6.36596 8.75906L8.76759 6.36884L8.23852 5.83725ZM9.24235 5.83788C8.96067 5.5562 8.51957 5.5562 8.23789 5.83788L8.76822 6.36821C8.7685 6.36793 8.76611 6.37031 8.76046 6.37269C8.7549 6.37502 8.74789 6.37662 8.74012 6.37662C8.73235 6.37662 8.72534 6.37502 8.71978 6.37269C8.71413 6.37031 8.71174 6.36793 8.71202 6.36821L9.24235 5.83788ZM11.4081 8.01017L9.24275 5.83828L8.71163 6.36781L10.877 8.5397L11.4081 8.01017ZM12.0387 7.73049C11.6929 7.73049 11.3382 7.78782 10.9989 7.92855L11.2862 8.62132C11.5205 8.52417 11.7752 8.48049 12.0387 8.48049V7.73049ZM14.0246 8.54774C13.484 8.02567 12.7841 7.73049 12.0387 7.73049V8.48049C12.5805 8.48049 13.0961 8.69366 13.5037 9.08726L14.0246 8.54774ZM14.0293 9.5568C14.311 9.27512 14.311 8.83402 14.0293 8.55234L13.499 9.08267C13.4993 9.08295 13.4969 9.08056 13.4945 9.07491C13.4922 9.06935 13.4906 9.06234 13.4906 9.05457C13.4906 9.0468 13.4922 9.03979 13.4945 9.03423C13.4969 9.02858 13.4993 9.02619 13.499 9.02647L14.0293 9.5568ZM12.0255 11.5639L14.0295 9.55659L13.4988 9.02669L11.4947 11.034L12.0255 11.5639ZM9.39196 12.8484C9.10804 12.4147 9.06987 11.8805 9.31075 11.4117L8.64363 11.069C8.27514 11.7862 8.33799 12.6077 8.76446 13.2592L9.39196 12.8484ZM12.7541 8.8378L8.81271 12.7889L9.3437 13.3186L13.285 9.36747L12.7541 8.8378ZM12.0224 9.17295C12.3236 9.17295 12.5849 9.25392 12.8024 9.40837L13.2367 8.7969C12.8806 8.54402 12.4642 8.42295 12.0224 8.42295V9.17295ZM11.3871 9.33268C11.588 9.22583 11.7981 9.17295 12.0224 9.17295V8.42295C11.6732 8.42295 11.3424 8.50694 11.0349 8.67056L11.3871 9.33268ZM10.5564 9.19835C10.7606 9.40256 11.0849 9.48218 11.3771 9.33783L11.0449 8.6654C11.048 8.66387 11.0526 8.66227 11.0583 8.66153C11.0638 8.6608 11.0689 8.66106 11.0732 8.66187C11.0814 8.66343 11.0855 8.66672 11.0868 8.66802L10.5564 9.19835ZM8.47342 7.07785L10.5541 9.19597L11.0891 8.6704L9.00846 6.55227L8.47342 7.07785ZM7.07731 9.0139L9.00644 7.07989L8.47544 6.55023L6.54631 8.48424L7.07731 9.0139ZM9.17423 10.586L7.07729 8.48422L6.54634 9.01393L8.64328 11.1158L9.17423 10.586ZM9.32849 11.3715C9.41698 11.1346 9.40537 10.8135 9.17179 10.5836L8.64572 11.1182C8.64078 11.1133 8.63663 11.1075 8.63372 11.1016C8.63094 11.096 8.63011 11.092 8.6299 11.0906C8.62971 11.0894 8.63005 11.0906 8.62964 11.0943C8.62922 11.0979 8.62815 11.1031 8.62589 11.1091L9.32849 11.3715Z"
              fill="inherit"/>
    </symbol>
    <symbol id="play" viewBox="0 0 18 18" fill="inherit" xmlns="http://www.w3.org/2000/svg">
        <path fill-rule="evenodd" clip-rule="evenodd"
              d="M0 9C0 4.02245 4.02245 0 9 0C13.9776 0 18 4.02245 18 9C18 13.9776 13.9776 18 9 18C4.02245 18 0 13.9776 0 9ZM1.4951 9C1.4951 13.1363 4.86367 16.5049 9 16.5049C13.1363 16.5049 16.5049 13.1363 16.5049 9C16.5049 4.86367 13.1363 1.4951 9 1.4951C4.86367 1.4951 1.4951 4.86367 1.4951 9Z"
              fill="inherit"/>
        <path fill-rule="evenodd" clip-rule="evenodd"
              d="M7.69959 4.67265L12.9049 8.42694C13.3384 8.8604 13.3053 9.25347 12.9086 9.6502L7.69959 13.4045C7.22204 13.7241 6.51306 13.5808 6.51306 12.791V5.24571C6.51306 4.45224 7.28082 4.39347 7.69959 4.67265ZM11.182 9L8.00449 6.7004V11.2996L11.182 9Z"
              fill="inherit"/>
    </symbol>
    <symbol id="wave" viewBox="0 0 20 18" fill="inherit" xmlns="http://www.w3.org/2000/svg">
        <path fill-rule="evenodd" clip-rule="evenodd"
              d="M1.23778 16.9098C3.97271 14.1804 6.72961 14.9229 9.76106 16.5791C11.2666 17.4015 12.9317 18 14.6254 18C16.577 18 18.2655 17.2036 19.7206 15.7753C20.0529 15.4492 20.0914 14.861 19.8214 14.4753C19.5588 14.1 19.0905 14.0382 18.7668 14.356C18.0518 15.0581 17.2402 15.5993 16.32 15.8998C14.2995 16.5595 12.2138 15.9119 10.3836 14.912C9.79614 14.5912 9.19841 14.2911 8.58516 14.0355C5.51247 12.7543 2.81877 12.9595 0.274458 15.4989C-0.0543234 15.8271 -0.0893969 16.4185 0.182624 16.8007C0.447818 17.1733 0.91676 17.2301 1.23778 16.9098ZM1.23778 3.64474C3.97245 0.915676 6.72987 1.65819 9.76106 3.31404C11.2664 4.13634 12.9317 4.73512 14.6255 4.73482C16.5769 4.73468 18.2655 3.93887 19.7206 2.51054C20.053 2.18428 20.0916 1.59617 19.8214 1.21025C19.5589 0.835148 19.0904 0.772828 18.7668 1.0905C18.0516 1.79275 17.2398 2.33394 16.3193 2.63444C14.2989 3.29421 12.2137 2.64688 10.3836 1.64694C9.79694 1.32646 9.19975 1.0267 8.58744 0.7712C5.51395 -0.510731 2.81957 -0.306155 0.274458 2.23432C-0.0555282 2.56368 -0.0902002 3.1521 0.182624 3.53549C0.447818 3.90823 0.91676 3.96507 1.23778 3.64474ZM1.23778 10.2696C3.97245 7.54057 6.72987 8.28293 9.76106 9.93893C11.2664 10.7614 12.9317 11.3605 14.6255 11.3603C16.577 11.36 18.2655 10.5635 19.7206 9.13513C20.0529 8.80903 20.0914 8.22106 19.8214 7.83514C19.5589 7.46004 19.0905 7.39801 18.7668 7.71583C18.0518 8.41793 17.2402 8.95913 16.32 9.25948C14.2995 9.91924 12.2138 9.27147 10.3836 8.27153C9.7964 7.95076 9.19895 7.65085 8.58596 7.39535C5.51287 6.11386 2.8189 6.31933 0.274458 8.85921C-0.0555282 9.18857 -0.0902002 9.77714 0.182624 10.1605C0.447818 10.5333 0.91676 10.59 1.23778 10.2696Z"
              fill="inherit"/>
    </symbol>
    <symbol id="btn-sb" viewBox="0 0 80 80" fill="inherit" xmlns="http://www.w3.org/2000/svg">
        <circle cx="80" cy="40" r="40" fill="inherit"/>
        <path fill-rule="evenodd" clip-rule="evenodd"
              d="M61.6332 31.1541L69.6933 39.2562C70.1022 39.667 70.1022 40.333 69.6933 40.7438L61.6332 48.8459C61.429 49.0514 61.0974 49.0514 60.8932 48.8459L60.1532 48.1021C59.9489 47.8967 59.9489 47.5637 60.1532 47.3583L67.1038 40.3722C67.308 40.1668 67.308 39.8332 67.1038 39.6284L60.1532 32.6417C59.9489 32.4363 59.9489 32.1033 60.1532 31.8979L60.8932 31.1541C61.0974 30.9486 61.429 30.9486 61.6332 31.1541Z"
              fill="white"/>
    </symbol>
    <symbol id="btn-open-sb" viewBox="0 0 21 41" fill="inherit" xmlns="http://www.w3.org/2000/svg">
        <circle cx="-0.128594" cy="20.0661" r="20" transform="rotate(-179.808 -0.128594 20.0661)" fill="#364952"
                fill-opacity="0.61"/>
        <path fill-rule="evenodd" clip-rule="evenodd"
              d="M5.67949 15.6566L9.83388 19.5801C10.0447 19.779 10.055 20.1118 9.85706 20.3235L5.95526 24.4982C5.85641 24.6041 5.69069 24.6093 5.58543 24.5098L5.20402 24.1496C5.09876 24.0501 5.09357 23.8837 5.19242 23.7779L8.55715 20.1782C8.656 20.0723 8.6508 19.9056 8.54555 19.8064L4.96303 16.4231C4.85777 16.3237 4.85258 16.1572 4.95144 16.0514L5.30967 15.6681C5.40852 15.5623 5.57423 15.5571 5.67949 15.6566"
              fill="white"/>
    </symbol>
    <symbol id="color-arrow" width="34" height="14" viewBox="0 0 34 14" fill="none" xmlns="http://www.w3.org/2000/svg">
        <path d="M20.6694 5.98792L17.0593 0H12.5358L12.5263 0.00559967L16.7021 6.9324L12.5448 13.8284H17.0812L20.6694 7.87664L21.2386 6.9324L20.6694 5.98792Z"
              fill="#E9A668"/>
        <path d="M26.9325 5.98792L23.3225 0H18.799L22.9653 6.9324L18.8079 13.8284H23.3444L26.9325 7.87664L27.5017 6.9324L26.9325 5.98792Z"
              fill="#E2954D"/>
        <path d="M33.1957 5.98792L29.5857 0H25.0621L25.0526 0.00559967L29.2285 6.9324L25.0711 13.8284H29.6075L33.1957 7.87664L33.7649 6.9324L33.1957 5.98792Z"
              fill="#9EA7B7"/>
        <path d="M14.9754 6.9324L14.4065 5.98792L10.7964 0H6.27288L6.26315 0.00559967L10.4392 6.9324L6.28163 13.8284H10.8183L14.4065 7.87664L14.9754 6.9324Z"
              fill="#4BB276"/>
        <path d="M8.7125 6.9324L8.14332 5.98792L4.53325 0H0.0097254L0 0.00559967L4.17584 6.9324L0.0184783 13.8284H4.55513L8.14332 7.87664L8.7125 6.9324Z"
              fill="#5FCE8D"/>
    </symbol>
</svg>
